<?xml version="1.0" standalone="no"?>
<!DOCTYPE svg PUBLIC "-//W3C//DTD SVG 1.1//EN" "http://www.w3.org/Graphics/SVG/1.1/DTD/svg11.dtd" >
<svg xmlns="http://www.w3.org/2000/svg">
<metadata>
<json>
<![CDATA[
{
	"fontFamily": "iconset",
	"fontURL": "http://----.kr",
	"description": "Font generated by IcoMoon.",
	"majorVersion": 1,
	"minorVersion": 98,
	"version": "Version 1.98",
	"fontId": "iconset",
	"psName": "iconset",
	"subFamily": "Regular",
	"fullName": "iconset"
}
]]>
</json>
</metadata>
<defs>
<font id="iconset" horiz-adv-x="1024">
<font-face units-per-em="1024" ascent="960" descent="-64" />
<missing-glyph horiz-adv-x="1024" />
<glyph unicode="&#x20;" horiz-adv-x="512" d="" />
<glyph unicode="&#xe900;" glyph-name="check" data-tags="check" d="M918.1 727.052c-18.895 18.895-49.656 18.895-68.553 0l-502.144-456.85-172.95 172.95c-18.895 18.895-49.656 18.895-68.553 0s-18.895-49.656 0-68.553l205.652-205.652c18.895-18.895 49.656-18.895 68.553 0l537.996 489.551c18.895 18.895 18.895 49.656 0 68.553z" />
<glyph unicode="&#xe901;" glyph-name="down_arrow" data-tags="down_arrow" d="M931.463 574.392l-373.702-335.477c-12.33-9.884-28.167-15.861-45.397-15.861s-33.069 5.975-45.542 15.972l0.149-0.111-373.702 335.477c-10.798 10.446-17.504 25.055-17.504 41.235 0 31.661 25.659 57.319 57.319 57.319 16.182 0 30.804-6.706 41.217-17.48l0.014-0.014 338.040-303.451 337.996 303.451c10.376 10.387 24.709 16.801 40.553 16.801 31.667 0 57.33-25.664 57.33-57.33 0-15.822-6.416-30.157-16.778-40.533v0z" />
<glyph unicode="&#xe902;" glyph-name="wand-thinmagic" data-tags="wand-thin magic" d="M1024 658.824h-198.356l140.228-140.228-42.586-42.586-140.228 140.228v-198.356h-60.236v197.932l-641.264-642.408-42.586 42.586 641.688 642.832h-198.776v60.236h198.354l-140.228 140.228 42.586 42.586 140.228-140.228v198.356h60.236v-198.596l137.758 137.998 42.586-42.586-137.516-137.758h198.114v-60.236z" />
<glyph unicode="&#xe903;" glyph-name="uniE903" data-tags="매장" d="M1004 448l-73.8 393.6h-836.4l-73.8-393.6h49.2v-393.6h885.6v393.6h49.2zM134.636 792.4h754.728l55.35-295.2h-162.114v147.6h-49.2v-147.6h-123v147.6h-49.2v-147.6h-123v147.6h-49.2v-147.6h-123v147.6h-49.2v-147.6h-137.514l55.35 295.2zM905.6 103.6h-787.2v344.4h787.2v-344.4zM413.6 300.4h196.8v-49.2h-196.8v49.2z" />
<glyph unicode="&#xe904;" glyph-name="uniE904" data-tags="개설문의" d="M484.518 659.432c8.418 7.674 19.558 11.636 33.424 11.636 14.608 0 25.5-3.962 32.928-11.884s11.142-19.558 11.142-34.662c0-11.388-3.218-22.034-9.656-31.938-4.208-6.438-14.112-17.33-29.958-32.432-15.598-15.35-26.244-29.214-31.442-42.088s-7.922-29.958-7.922-51.248h54.962c0.248 23.272 5.694 40.85 16.34 52.982l29.71 29.214c24.51 25.5 36.642 51.496 36.642 77.74 0 29.462-9.16 52.486-27.234 69.074s-43.326 24.758-75.76 24.758c-31.442 0-56.696-8.418-75.76-25.006s-28.72-39.118-29.214-67.836h58.676c0.248 13.122 4.456 23.768 13.122 31.69zM512 423.49c-10.15 0-18.32-2.97-24.262-8.666s-8.912-13.616-8.912-23.024c0-8.912 2.97-16.34 8.666-22.282s13.864-8.912 24.51-8.912 18.816 2.97 24.758 8.912 8.666 13.37 8.666 22.282c0 9.16-2.97 16.836-8.912 22.778s-14.112 8.912-24.51 8.912zM16.842 918.4v-742.736h198.064v-198.064l222.822 198.064h569.432v742.736h-990.316zM957.642 225.178h-538.732l-14.112-12.626-140.378-124.78v137.406h-198.064v643.706h891.284v-643.706z" />
<glyph unicode="&#xe905;" glyph-name="VR" data-tags="VR투어" d="M210.616 450.516l125.564 125.564 16.912-16.912-125.564-125.564-16.912 16.912zM288.264 444.46l59.78 59.78 16.912-16.912-59.78-59.78-16.912 16.912zM942.484 579.536h-23.916v35.874c0 33.004-26.786 59.79-59.79 59.79h-693.558c-33.004 0-59.79-26.786-59.79-59.79v-35.874h-23.916c-26.426 0-47.832-21.404-47.832-47.832v-155.452c0-26.426 21.404-47.832 47.832-47.832h23.916v-47.832c0-33.004 26.786-59.79 59.79-59.79h196.468c19.252 0 37.428 9.328 48.668 24.992l27.622 38.624c8.968 12.556 23.438 20.090 38.864 20.090h70.312c15.426 0 29.894-7.414 38.864-20.090l27.622-38.624c11.24-15.664 29.296-24.992 48.668-24.992h196.468c33.004 0 59.79 26.786 59.79 59.79v47.832h23.916c26.426 0 47.832 21.404 47.832 47.832v155.452c0 26.426-21.404 47.832-47.832 47.832zM81.516 352.335c-13.154 0-23.916 10.762-23.916 23.916v155.452c0 13.154 10.762 23.916 23.916 23.916h23.916v-203.284h-23.916zM894.653 280.59c0-19.73-16.144-35.874-35.874-35.874h-196.468c-11.6 0-22.48 5.62-29.178 15.066l-27.622 38.624c-13.392 18.774-35.156 30.014-58.354 30.014h-70.312c-23.078 0-44.962-11.24-58.354-30.014l-27.622-38.624c-6.696-9.446-17.698-15.066-29.178-15.066h-196.468c-19.73 0-35.874 16.144-35.874 35.874v334.822c0 19.73 16.144 35.874 35.874 35.874h693.558c19.73 0 35.874-16.144 35.874-35.874v-334.822zM966.401 376.252c0-13.154-10.762-23.916-23.916-23.916h-23.916v203.284h23.916c13.154 0 23.916-10.762 23.916-23.916v-155.452z" />
<glyph unicode="&#xe906;" glyph-name="uniE906" data-tags="쿠폰" d="M26 747.077v-598.154h972v598.154h-972zM979.308 167.615h-84.115v336.462h-18.692v-336.462h-831.808v560.769h831.808v-130.846h18.692v130.846h84.115v-560.769z" />
<glyph unicode="&#xe907;" glyph-name="ALL" data-tags="ALL" d="M512 944l-496-403v-589h341v279h310v-279h341v589l-496 403zM977-17h-279v279h-372v-279h-279v543.12l465 377.89 465-377.89v-543.12z" />
<glyph unicode="&#xe908;" glyph-name="uniE908" data-tags="침실" d="M840.533 557.512v301.155h-657.067v-301.155l-164.267-164.267v-164.267h109.512v-191.645h27.378v191.645h711.822v-191.645h27.378v191.645h109.512v164.267l-164.267 164.267zM210.845 831.288h602.312v-273.778h-164.267v109.512h-273.778v-109.512h-164.267v273.778zM621.512 557.512h-219.022v82.133h219.022v-82.133zM977.422 256.355h-930.845v109.512h930.845v-109.512zM57.803 393.245l136.888 136.888h634.616l136.888-136.888h-908.395z" />
<glyph unicode="&#xe909;" glyph-name="target" data-tags="target" d="M1025.204 478.118h-123.182c-14.758 192.392-169.020 346.052-361.654 360.026v124.206h-60.236v-124.386c-191.066-15.54-343.462-168.598-358.158-359.846h-123.18v-60.234h123.18c14.698-191.248 167.092-344.306 358.098-359.846v-122.038h60.234v121.856c192.632 13.914 346.894 167.576 361.654 360.026h123.18v60.236zM540.37 118.092v119.086h-60.236v-118.904c-157.878 15.178-283.588 141.552-297.924 299.61h117.76v60.236h-117.76c14.336 158.058 140.048 284.43 297.924 299.61v-116.556h60.236v116.736c159.442-13.674 286.962-140.528 301.418-299.792h-117.76v-60.236h117.76c-14.456-159.262-141.976-286.118-301.416-299.79z" />
<glyph unicode="&#xe90a;" glyph-name="bookmark" data-tags="bookmark" d="M539.288 899.284l-238.952-173.598v-731.256l240.098 168.298 243.412-167.754v730.956l-244.556 173.356zM723.668 109.658l-183.416 126.494-179.622-125.952v584.824l179.2 130.168 183.898-130.408v-585.126zM436.948 598.528c0-58.126 47.284-105.412 105.412-105.412s105.412 47.284 105.412 105.412-47.284 105.412-105.412 105.412-105.412-47.284-105.412-105.412zM542.36 643.704c24.876 0 45.176-20.298 45.176-45.176s-20.298-45.176-45.176-45.176-45.176 20.298-45.176 45.176 20.3 45.176 45.176 45.176z" />
<glyph unicode="&#xe90b;" glyph-name="tablet-ios" data-tags="tablet-ios" d="M557.176 86.588c0-24.998-20.178-45.176-45.176-45.176s-45.176 20.178-45.176 45.176 20.178 45.176 45.176 45.176 45.176-20.178 45.176-45.176zM963.764 869.648v-843.294c0-49.816-37.648-90.352-83.848-90.352h-735.834c-46.2 0-83.848 40.538-83.848 90.352v843.294c0 49.814 37.648 90.352 83.848 90.352h735.894c46.14 0 83.788-40.538 83.788-90.352zM903.528 869.648c0 16.324-10.782 30.118-23.612 30.118h-735.834c-12.83 0-23.612-13.794-23.612-30.118v-843.294c0-16.324 10.782-30.118 23.612-30.118h735.894c12.77 0 23.552 13.794 23.552 30.118v843.294zM180.706 839.528h662.588v-662.588h-662.588v662.588zM240.942 237.176h542.118v542.118h-542.118v-542.118z" />
<glyph unicode="&#xe90c;" glyph-name="uniE90C" data-tags="드레스룸" d="M481.066 633.6v-185.6l-464-464h989.866l-494.934 464v157.76c70.528 14.23 123.734 76.714 123.734 151.574 0 85.376-69.29 154.666-154.666 154.666s-154.666-69.29-154.666-154.666h30.934c0 68.362 55.37 123.734 123.734 123.734s123.734-55.37 123.734-123.734-55.37-123.734-123.734-123.734zM928.672 14.934h-837.056l402.134 402.134h5.878l429.046-402.134z" />
<glyph unicode="&#xe90d;" glyph-name="uniE90D" data-tags="거실" d="M1006 530.333h-164.667v192.111c0 90.841-73.826 164.667-164.667 164.667h-329.333c-90.841 0-164.667-73.826-164.667-164.667v-192.111h-164.667v-219.556h54.889v-301.889h109.778v109.778h658.667v-109.778h109.778v301.889h54.889v219.556zM210.111 722.444c0 75.747 61.476 137.222 137.222 137.222h329.333c75.747 0 137.222-61.476 137.222-137.222v-192.111h-603.778v192.111zM923.667 36.333h-54.889v109.778h-713.556v-109.778h-54.889v274.444h823.333v-274.444zM978.556 338.222h-933.111v164.667h933.111v-164.667zM410.181 722.444l-29.091-29.091-29.091 29.091-19.486-19.486 29.366-29.091-29.366-29.091 19.486-19.486 29.091 29.366 29.091-29.366 19.486 19.486-29.091 29.091 29.091 29.091zM672.001 722.444l-29.091-29.091-29.091 29.091-19.486-19.486 29.091-29.091-29.091-29.091 19.486-19.486 29.091 29.366 29.091-29.366 19.486 19.486-29.366 29.091 29.366 29.091z" />
<glyph unicode="&#xe90e;" glyph-name="uniE90E" data-tags="서재" d="M78 944v-992h868v992h-868zM636 913v-124h-248v124h248zM388 758h248v-496h-248v496zM109 913h248v-527h-248v527zM109-17v372h248v-372h-248zM388-17v248h248v-248h-248zM915-17h-248v124h248v-124zM915 138h-248v434h248v-434zM915 603h-248v310h248v-310z" />
<glyph unicode="&#xe90f;" glyph-name="uniE90F" data-tags="주방" d="M735.2 572v74.4h49.6v24.8h-124v-24.8h49.6v-74.4h-198.4v272.8c0 40.92 33.48 74.4 74.4 74.4s74.4-33.48 74.4-74.4v-24.8h24.8v24.8c0 54.808-44.392 99.2-99.2 99.2s-99.2-44.392-99.2-99.2v-272.8h-198.4v74.4h49.6v24.8h-124v-24.8h49.6v-74.4h-198.4v-545.6h49.6v-74.4h793.6v74.4h49.6v545.848h-223.2zM90.4 51.2v371.504h396.8v-371.256h-396.8zM884-23.2h-744v49.6h744v-49.6zM933.6 51.2h-421.6v371.504h421.6v-371.504zM90.4 448v99.2h843.2v-99.2h-843.2zM412.8 373.6h24.8v-99.2h-24.8v99.2zM561.6 373.6h24.8v-99.2h-24.8v99.2z" />
<glyph unicode="&#xe910;" glyph-name="uniE910" data-tags="자녀방" d="M853 665v-124h-119.66l57.66 403h-558l57.66-403h-119.66v124h-31v-310h248v-92.070c-97.96-58.59-128.34-152.52-136.4-188.17-28.21-5.89-49.6-30.69-49.6-60.76 0-34.1 27.9-62 62-62s62 27.9 62 62c0 27.59-17.98 50.53-43.090 58.59 8.68 32.86 36.27 108.19 113.15 158.41h231.88c76.57-50.22 104.47-125.24 113.15-158.41-24.8-8.060-43.090-31-43.090-58.59 0-34.1 27.9-62 62-62s62 27.9 62 62c0 30.070-21.39 54.87-49.6 60.76-8.37 35.65-38.44 129.27-136.4 188.17v92.070h248v310h-31zM295 14c0-17.050-13.95-31-31-31s-31 13.95-31 31 13.95 31 31 31 31-13.95 31-31zM791 14c0-17.050-13.95-31-31-31s-31 13.95-31 31 13.95 31 31 31 31-13.95 31-31zM268.65 913h486.39l-53.010-372h-380.060l-53.32 372zM605 262h-186v93h186v-93zM853 386h-682v124h682v-124z" />
<glyph unicode="&#xe911;" glyph-name="uniE911" data-tags="가전" d="M853 820v31h-217v93h-248v-93h-217v-31h67.27l56.73-341h31v-124h-31l-124-341h682l-124 341h-31v31h155v310h-87.73l20.77 124h66.96zM419 913h186v-62h-186v62zM707.3 324l101.37-279h-593.34l101.37 279h390.6zM357 355v124h310v-124h-310zM822 665v-248h-124v62h31l31 186h62zM702.65 510h-381.3l-51.77 310h484.84l-51.77-310zM295 14h31v-62h-31v62zM698 14h31v-62h-31v62zM512 107c34.1 0 62 27.9 62 62s-27.9 62-62 62-62-27.9-62-62 27.9-62 62-62zM512 200c17.050 0 31-13.95 31-31s-13.95-31-31-31-31 13.95-31 31 13.95 31 31 31z" />
<glyph unicode="&#xe912;" glyph-name="uniE912" data-tags="홈인테리어" d="M622.12 544.356v110.12h-82.591v275.302h-27.53v-275.302h-82.591v-110.12l-412.953-385.422h991.086l-385.422 385.422zM448.131 524.259l8.81 8.259v94.428h137.65v-93.878l346.606-346.606h-854.812l361.746 337.795zM512-6.247c-91.125 0-165.181 74.056-165.181 165.181h-27.53c0-106.542 86.169-192.711 192.711-192.711s192.711 86.169 192.711 192.711h-27.53c0-91.125-74.056-165.181-165.181-165.181z" />
<glyph unicode="&#xe913;" glyph-name="uniE913" data-tags="컨텐츠등록" d="M17.552 40.988h918.073v-43.718h-918.073v43.718zM1006.448 682.328l-216.403 216.403-510.187-508.001v-218.588h218.588l508.001 510.187zM323.576 215.859v156.51l466.469 464.282 154.761-154.761-464.721-466.031h-156.51z" />
<glyph unicode="&#xe914;" glyph-name="uniE914" data-tags="입금대기중" d="M512 944c-273.902 0-496-222.098-496-496s222.098-496 496-496c273.902 0 496 222.098 496 496s-222.098 496-496 496zM512 7.111c-243.040 0-440.889 197.849-440.889 440.889s197.849 440.889 440.889 440.889c243.040 0 440.889-197.849 440.889-440.889s-197.849-440.889-440.889-440.889zM539.556 668.444h-55.111v-248l180.489-104.16 27.556 47.671-152.933 88.178z" />
<glyph unicode="&#xe915;" glyph-name="uniE915" data-tags="결제완료" d="M1006 887.111h-988v-54.889h82.333v-741l82.333-82.333 54.889 54.889 54.889-54.889 54.889 54.889 54.889-54.889 54.889 54.889 54.889-54.889 54.889 54.889 54.889-54.889 54.889 54.889 54.889-54.889 54.889 54.889 54.889-54.889 82.333 82.333v741h82.333v54.889zM868.778 114.001l-27.444-27.444-54.889 54.889-54.889-54.889-54.889 54.889-54.889-54.889-54.889 54.889-54.889-54.889-54.889 54.889-54.889-54.889-54.889 54.889-54.889-54.889-54.889 54.889-54.889-54.889-27.444 27.444v718.221h713.556v-718.221zM265 722.444h494v-54.889h-494v54.889zM265 585.222h494v-54.889h-494v54.889zM265 448h219.556v-54.889h-219.556v54.889z" />
<glyph unicode="&#xe916;" glyph-name="uniE916" data-tags="베송준비중" d="M999 525.92l-214.28 233.76h-545.44l-214.28-233.76h175.32v-389.6h623.36v389.6h175.32zM767.578 720.72l142.788-155.84h-86.686l-124.672 155.84h68.57zM649.139 720.72l124.672-155.84h-523.622l124.672 155.84h274.278zM453.56 525.92h116.88v-77.92h-116.88v77.92zM113.634 564.88l142.788 155.84h68.57l-124.672-155.84h-86.686zM784.72 175.28h-545.44v350.64h175.32v-116.88h194.8v116.88h175.32v-350.64z" />
<glyph unicode="&#xe917;" glyph-name="uniE917" data-tags="배송중" d="M71.062 656.22h293.958v-48.994h-293.958v48.994zM854.952 656.22h-146.98v146.98h-685.904v-48.994h636.91v-441.428c-16.658-12.494-30.13-29.15-38.704-48.504v0h-167.556c-18.862 43.114-61.976 73.49-112.194 73.49s-93.332-30.376-112.194-73.49v0h-59.282v244.966h-48.994v-293.958h97.986c0 7.838 0.98 15.678 2.204 23.026-1.224-7.594-2.204-15.188-2.204-23.026 0-67.61 54.872-122.482 122.482-122.482s122.482 54.872 122.482 122.482c0 7.838-0.98 15.432-2.204 23.026 1.224-7.348 2.204-15.188 2.204-23.026h146.98c0 7.838 0.98 15.678 2.204 23.026-1.224-7.594-2.204-15.188-2.204-23.026 0-67.61 54.872-122.482 122.482-122.482s122.482 54.872 122.482 122.482h146.98v244.966l-146.98 195.972zM226.616 259.866c-2.45-6.124-4.654-12.494-5.88-19.352 1.47 6.86 3.43 13.228 5.88 19.352zM340.524 141.794c-40.42 0-73.49 33.070-73.49 73.49s33.070 73.49 73.49 73.49c40.42 0 73.49-33.070 73.49-73.49s-33.070-73.49-73.49-73.49zM454.434 259.866c2.45-6.124 4.654-12.494 5.88-19.352-1.47 6.86-3.43 13.228-5.88 19.352zM618.56 259.866c-2.45-6.124-4.654-12.494-5.88-19.352 1.47 6.86 3.43 13.228 5.88 19.352zM732.468 141.794c-40.42 0-73.49 33.070-73.49 73.49s33.070 73.49 73.49 73.49 73.49-33.070 73.49-73.49-33.070-73.49-73.49-73.49zM952.938 264.276h-108.274c-18.862 43.114-61.976 73.49-112.194 73.49-8.328 0-16.658-0.98-24.496-2.45v271.912h122.482l122.482-163.392v-179.56z" />
<glyph unicode="&#xe918;" glyph-name="uniE918" data-tags="배송완료" d="M907.378 410.44v235.25l-197.688 247.112h-494.222l-197.688-247.112v-543.644h581.206c39.784-59.554 107.74-98.844 184.84-98.844 122.814 0 222.4 99.586 222.4 222.4 0 77.098-39.29 145.054-98.844 184.84zM685.966 843.378l158.152-197.688h-257.984l-39.538 197.688h139.37zM428.97 843.378h67.214l39.538-197.688h-146.29l39.538 197.688zM388.444 596.266h148.266v-98.844h-148.266v98.844zM239.19 843.378h139.37l-39.538-197.688h-257.984l158.152 197.688zM561.422 225.6c0-25.946 4.696-50.904 12.85-74.134h-507.072v444.8h271.822v-148.266h247.112v148.266h271.822v-161.116c-23.228 8.154-48.186 12.85-74.134 12.85-122.814 0-222.4-99.586-222.4-222.4zM792.718 161.598l-34.842-34.842-87.23 87.23 34.842 34.842 52.388-52.388 105.764 105.764 34.842-34.842-105.764-105.764z" />
<glyph unicode="&#xe919;" glyph-name="uniE919" data-tags="최소자금" d="M512 944c-273.902 0-496-222.098-496-496s222.098-496 496-496 496 222.098 496 496-222.098 496-496 496zM512-20.444c-258.333 0-468.444 210.111-468.444 468.444s210.111 468.444 468.444 468.444c258.333 0 468.444-210.111 468.444-468.444s-210.111-468.444-468.444-468.444zM773.227 664.449l-26.316 7.991-63.929-210.662h-106.64l-50.84 209.973-26.867-0.413-44.502-209.56h-121.382l-83.356 211.764-25.627-10.058 79.222-201.707h-66.547v-27.556h77.431l88.867-225.542 26.316 2.204 47.396 223.338h78.258l54.284-223.751 26.591-0.689 67.787 224.44h97.96v27.556h-89.556l61.449 202.671zM411.56 261.449l-68.062 172.773h104.711l-36.649-172.773zM482.24 461.778l30.587 144.529 35.133-144.529h-65.72zM623.738 266.133l-40.782 168.089h91.622l-50.84-168.089z" />
<glyph unicode="&#xe91a;" glyph-name="uniE91A" data-tags="수익달성" d="M881.6 64.712v465.422h-191.645v-465.422h-82.133v164.267h-191.645v-164.267h-82.133v301.155h-191.645v-301.155h-123.2v-27.378h985.6v27.378h-123.2zM169.778 64.712v273.778h136.888v-273.778h-136.888zM443.555 64.712v136.888h136.888v-136.888h-136.888zM717.333 64.712v438.045h136.888v-438.045h-136.888zM381.955 668.254l130.045-130.045 273.778 273.778v-131.277h27.378v177.955h-177.955v-27.378h131.277l-254.477-254.477-130.045 130.045-153.453-153.315 19.438-19.438z" />
<glyph unicode="&#xe91b;" glyph-name="uniE91B" data-tags="전문가" d="M379.236 388.256c88.023 0 159.318 83.243 159.318 185.87s-71.295 185.87-159.318 185.87-159.318-83.243-159.318-185.87 71.295-185.87 159.318-185.87zM379.236 733.444c73.152 0 132.764-71.428 132.764-159.318s-59.612-159.318-132.764-159.318-132.764 71.428-132.764 159.318 59.612 159.318 132.764 159.318zM711.146 680.338h26.554v-26.554h-26.554v26.554zM790.805 680.338h26.554v-26.554h-26.554v26.554zM870.464 680.338h26.554v-26.554h-26.554v26.554zM379.236 282.045l-92.935 106.211-265.529-119.489v-199.146h26.554v182.021l231.939 104.353 79.924-91.475 20.047-22.835 20.047 22.835 79.924 91.475 231.939-104.353v-182.021h26.554v199.146l-265.529 119.489zM604.935 826.378v-146.040h26.554v119.489h345.188v-265.529h-208.308l-83.775-65.188v65.188h-79.659v-26.554h53.105v-92.935l119.489 92.935h225.699v318.634z" />
<glyph unicode="&#xe91c;" glyph-name="plusthin" data-tags="plus thin" d="M944.002 419.196h-403.198v-403.198h-57.597v403.196h-403.196v57.597h403.196v403.198h57.597v-403.198h403.196v-57.597z" />
<glyph unicode="&#xe91d;" glyph-name="uniE91D" data-tags="대리점" d="M1004.8 215.288h-164.267v177.955h-27.378v-177.955h-164.267v-27.378h164.267v-150.578h27.378v150.578h164.267zM515.97 301.392v27.378h-172.206v-264.059h-297.186v472.267l383.288 287.467 383.288-287.467v-61.6h27.378v75.288l-410.667 308-410.667-308v-513.333h351.941v264.059h117.451v-264.059h105.541v27.378h-78.163z" />
<glyph unicode="&#xe91e;" glyph-name="uniE91E" data-tags="간단조치방법" d="M979.069 119.855l-388.768 388.768 212.483 212.483 79.092-19.835 93.224 163.144-46.612 46.612-163.144-93.224 19.835-79.092-212.483-212.483-117.026 117.026-11.653 173.557-127.193 127.193h-208.268l138.846-138.846-11.653-11.405-80.827-81.075-138.846 138.846v-208.020l127.193-127.193 173.557-11.653 117.026-117.026-65.207-65.207-72.645 72.645-245.955-245.955c-45.124-45.124-45.124-118.018 0-163.144 22.314-22.562 51.819-33.719 81.323-33.719s59.009 11.157 81.571 33.719l245.955 245.955-72.645 72.645 65.207 65.207 389.016-389.016c19.091-19.091 44.381-28.761 69.422-28.761s50.331 9.67 69.422 28.761c38.182 38.43 38.182 100.662-0.248 139.094zM924.026 880.032l19.835-19.835-74.381-130.416-60.496 15.124-15.124 60.744 130.168 74.381zM195.336 3.571c-16.86-17.108-39.67-26.529-63.967-26.529-24.050 0-46.86 9.422-63.967 26.529s-26.529 39.918-26.529 63.967c0 24.050 9.422 46.86 26.529 63.967l228.599 228.599 127.937-127.937-228.599-228.599zM961.714-1.388c-13.884-13.884-32.232-21.57-51.819-21.57s-37.934 7.686-51.819 21.57l-530.339 530.339-9.174 0.744-164.384 10.661-113.307 113.307v138.102l114.051-114.051 127.689 127.689-17.603 17.603-96.447 96.199h138.102l113.307-113.307 10.909-164.136 0.744-9.174 530.339-530.339c28.265-28.513 28.265-75.125-0.248-103.637zM135.86 89.367l149.895 149.895 17.531-17.531-149.895-149.895-17.531 17.531z" />
<glyph unicode="&#xe91f;" glyph-name="uniE91F" data-tags="매장찾기" d="M511.999 472.657c54.496 0 98.636 44.14 98.636 98.636s-44.14 98.636-98.636 98.636-98.636-44.14-98.636-98.636 44.14-98.636 98.636-98.636zM511.999 620.611c27.124 0 49.318-22.192 49.318-49.318s-22.192-49.318-49.318-49.318-49.318 22.192-49.318 49.318c0 27.372 22.192 49.318 49.318 49.318zM832.563 300.047h-160.528c0 0 0 0 0 0 72.004 71.758 135.624 168.174 135.624 283.824 0.246 156.336-132.418 283.33-295.66 283.33s-295.906-126.992-295.906-283.33c0-116.144 63.374-212.312 134.884-283.824 0 0 0 0 0 0h-159.542l-172.612-271.248h986.353l-172.612 271.248zM265.411 583.869c0 129.212 110.718 234.012 246.588 234.012s246.588-105.046 246.588-234.012c0-119.102-80.142-216.752-158.802-283.824-22.192-18.988-44.14-35.508-64.112-49.318-8.384-5.672-16.522-11.096-23.92-16.028-7.644 4.932-15.782 10.356-23.92 16.028-20.22 13.808-42.166 30.33-64.36 49.318-78.416 67.072-158.064 164.474-158.064 283.824zM218.559 250.729h187.16c40.194-32.796 78.662-57.702 106.032-73.976 27.124 16.274 65.592 41.18 105.54 73.976h187.9l109.732-172.612h-806.344l109.978 172.612z" />
<glyph unicode="&#xe920;" glyph-name="search" data-tags="search" d="M1007.872 7.124l-214.808 214.808c144.93 172.884 136.39 430.912-26.139 593.44-85.663 85.663-198.245 128.626-310.826 128.626s-225.16-42.961-311.085-128.884c-171.846-171.846-171.846-450.322 0-622.168 85.923-85.923 198.503-128.884 311.085-128.884 100.415 0 200.835 34.421 282.358 102.746l214.808-214.808 54.607 55.126zM456.099 141.702c-96.794 0-187.891 37.788-256.216 106.112-68.325 68.583-106.112 159.425-106.112 256.216s37.788 187.891 106.112 256.216c68.325 68.325 159.425 106.112 256.216 106.112s187.891-37.788 256.216-106.112c68.325-68.325 106.112-159.425 106.112-256.216s-37.788-187.891-106.112-256.216c-68.325-68.325-159.425-106.112-256.216-106.112z" />
<glyph unicode="&#xe921;" glyph-name="reset" data-tags="reset" d="M512.001 874.667c-153.173 0-287.36-80.853-362.667-202.24v159.573h-64v-255.787h256v64h-136.747c66.133 105.6 182.187 170.453 307.413 170.453 199.893 0 362.667-162.773 362.667-362.667s-162.773-362.667-362.667-362.667-362.667 162.773-362.667 362.667h-64c0-235.733 190.933-426.667 426.667-426.667s426.667 190.933 426.667 426.667-190.933 426.667-426.667 426.667z" />
<glyph unicode="&#xe922;" glyph-name="banstop" data-tags="ban stop" d="M512 929.882c-265.698 0-481.882-216.184-481.882-481.882s216.184-481.882 481.882-481.882 481.882 216.184 481.882 481.882-216.184 481.882-481.882 481.882zM512 869.648c105.412 0 201.668-39.154 275.698-103.364l-593.92-593.98c-64.272 73.968-103.424 170.284-103.424 275.698 0 232.448 189.14 421.646 421.646 421.646zM512 26.352c-105.412 0-201.668 39.154-275.698 103.364l593.92 593.98c64.27-73.968 103.424-170.284 103.424-275.698 0-232.448-189.14-421.646-421.646-421.646z" />
<glyph unicode="&#xe923;" glyph-name="mobile" data-tags="mobile" d="M752.942 960h-481.882c-49.814 0-90.354-40.538-90.354-90.352v-843.294c0-49.816 40.538-90.352 90.354-90.352h481.882c49.816 0 90.352 40.538 90.352 90.352v843.294c0 49.814-40.538 90.352-90.352 90.352zM271.060 899.764h481.882c16.626 0 30.118-13.492 30.118-30.118v-90.354h-542.118v90.354c0 16.626 13.492 30.118 30.118 30.118zM783.058 719.058v-481.882h-542.118v481.882h542.118zM752.942-3.764h-481.882c-16.626 0-30.118 13.494-30.118 30.118v150.588h542.118v-150.588c0-16.626-13.494-30.118-30.118-30.118zM542.118 86.588c0-16.626-13.494-30.118-30.118-30.118s-30.118 13.494-30.118 30.118 13.492 30.118 30.118 30.118 30.118-13.494 30.118-30.118z" />
<glyph unicode="&#xe924;" glyph-name="minus-thin1" data-tags="minus-thin1" d="M920.001 479.384v-62.769h-816.002v62.77h816.002z" />
<glyph unicode="&#xe925;" glyph-name="uniE925" data-tags="부품구매" d="M939.662 553.538c-10.747 43.813-28.107 84.871-50.702 122.347l32.24 64.48-116.836 116.836-64.48-32.24c-37.476 22.596-78.533 39.956-122.347 50.702l-22.871 68.338h-165.333l-22.871-68.338c-43.813-10.747-84.871-28.107-122.347-50.702l-64.48 32.24-116.836-116.836 32.24-64.48c-22.596-37.476-39.956-78.533-50.702-122.347l-68.338-22.871v-165.333l68.338-22.871c10.747-43.813 28.107-84.871 50.702-122.347l-32.24-64.48 116.836-116.836 64.48 32.24c37.476-22.596 78.533-39.956 122.347-50.702l22.871-68.338h165.333l22.871 68.338c43.813 10.747 84.871 28.107 122.347 50.702l64.48-32.24 116.836 116.836-32.24 64.48c22.596 37.476 39.956 78.533 50.702 122.347l68.338 22.871v165.333l-68.338 22.871zM952.889 405.013l-59.52-19.84-7.164-29.484c-9.369-37.751-24.249-73.573-44.364-106.916l-15.707-25.902 27.831-56.213-60.622-60.622-56.213 27.831-25.902-15.707c-33.342-20.116-69.164-34.996-106.916-44.364l-29.484-7.164-19.84-59.52h-85.973l-19.84 59.52-29.484 7.164c-37.751 9.369-73.849 24.249-106.916 44.364l-25.902 15.707-56.213-27.831-60.622 60.622 27.831 56.213-15.707 25.902c-20.116 33.342-34.996 69.164-44.364 106.916l-7.164 29.484-59.52 19.84v85.973l59.52 19.84 7.164 29.484c9.369 37.751 24.249 73.849 44.364 106.916l15.707 25.902-13.502 27.28-14.604 28.933 60.622 60.622 56.213-27.831 25.902 15.707c33.342 20.116 69.164 34.996 106.916 44.364l29.484 7.164 9.644 28.933 10.471 30.587h85.973l19.84-59.52 29.484-7.164c37.751-9.369 73.849-24.249 106.916-44.364l25.902-15.707 56.213 27.831 60.622-60.622-27.831-56.213 15.707-25.902c20.116-33.342 34.996-69.164 44.364-106.916l7.164-29.484 59.52-19.84v-85.973zM455.511 388.203l-97.547 97.271-38.853-38.853 136.4-136.4 253.236 253.236-38.853 39.129z" />
<glyph unicode="&#xe926;" glyph-name="uniE926" data-tags="고객의소리" d="M841.333 612.667v274.444l-576.333-274.444h-247v-329.333h247l576.333-274.444v274.444c90.841 0 164.667 73.826 164.667 164.667s-73.826 164.667-164.667 164.667zM72.889 557.778h164.667v-219.556h-164.667v219.556zM786.444 95.888l-494 235.199v233.827l494 235.199v-704.224zM841.333 338.222v219.556c60.652 0 109.778-49.126 109.778-109.778s-49.126-109.778-109.778-109.778z" />
<glyph unicode="&#xe927;" glyph-name="uniE927" data-tags="카탈로그자료실" d="M291.557 613.333h275.556v-55.111h-275.556v55.111zM291.557 392.889h275.556v-55.111h-275.556v55.111zM925.334 558.222h-110.222v385.778h-771.556v-881.778c0-60.898 49.324-110.222 110.222-110.222h716.444c60.898 0 110.222 49.324 110.222 110.222v496h-55.111zM760.001 7.111h-606.222c-30.311 0-55.111 24.8-55.111 55.111v826.667h661.333v-826.667c0-20.116 5.787-38.853 15.156-55.111h-15.156zM925.334 62.222c0-30.311-24.8-55.111-55.111-55.111s-55.111 24.8-55.111 55.111v440.889h110.222v-440.889z" />
<glyph unicode="&#xe928;" glyph-name="uniE928" data-tags="대리점개설" d="M849.316 240.421v155.684h-51.895v-155.684h-155.684v-51.895h155.684v-155.684h51.895v155.684h155.684v51.895zM537.947 292.316v51.895h-207.579v-259.474h-259.474v441.105l363.263 272.447 362.225-271.669 33.472 39.959-395.697 296.578-415.158-311.368v-518.947h363.263v259.474h103.789v-259.474h155.684v51.895h-103.789z" />
<glyph unicode="&#xe929;" glyph-name="arrow-up" data-tags="arrow-up" d="M912.324 426.678l-370.206 370.266v-800.708h-60.236v800.708l-370.206-370.266-42.646 42.646 442.97 442.91 442.97-442.97-42.648-42.586z" />
<glyph unicode="&#xe92a;" glyph-name="arrow-right" data-tags="arrow-right" d="M946.116 449.688l-442.97-442.97-42.586 42.586 370.206 370.206h-770.53v60.236h770.59l-370.266 370.326 42.586 42.586 442.97-442.97z" />
<glyph unicode="&#xe92b;" glyph-name="arrow-left" data-tags="arrow-left" d="M963.764 419.568h-770.59l370.206-370.206-42.586-42.586-442.91 442.91 442.97 442.97 42.586-42.586-370.266-370.266h770.59v-60.236z" />
<glyph unicode="&#xe92c;" glyph-name="arrow-down" data-tags="arrow-down" d="M954.97 426.678l-442.97-442.91-442.97 442.91 42.586 42.586 370.266-370.206v800.708h60.234v-800.708l370.206 370.206 42.648-42.586z" />
<glyph unicode="&#xe92d;" glyph-name="MO_" data-tags="MO_검색" d="M1008-8.037l-198.683 198.683c70.574 80.21 113.655 184.795 113.655 299.867 0 250.551-202.935 453.486-453.486 453.486s-453.486-202.935-453.486-453.486 202.935-453.486 453.486-453.486c115.072 0 219.657 43.081 299.584 113.655l198.967-198.683 39.963 39.963zM72.686 490.514c0 218.807 177.993 396.8 396.8 396.8s396.8-177.993 396.8-396.8c0-218.807-177.993-396.8-396.8-396.8s-396.8 177.993-396.8 396.8z" />
<glyph unicode="&#xe92e;" glyph-name="uniE92E" data-tags="이전설치접수" d="M704.889 861.333v82.667h-385.778v-82.667h-220.444v-909.333h826.667v909.333h-220.444zM374.222 861.333v27.556h275.556v-82.667h-275.556v55.111zM870.222 7.111h-716.444v799.111h165.333v-55.111h385.778v55.111h165.333v-799.111zM451.653 333.093l-97.547 97.271-38.853-38.853 97.271-97.547 39.129-38.853 253.236 253.236-38.853 39.129z" />
<glyph unicode="&#xe92f;" glyph-name="chainlink" data-tags="chain link" d="M782.034 541.966l-56.5-56.5-42.586 42.586 56.5 56.5c58.73 58.728 58.73 154.264 0 212.932s-154.264 58.728-212.932 0l-179.924-179.984c-58.728-58.73-58.728-154.264 0-212.932s154.264-58.73 212.932 0l42.586-42.586c-41.14-41.14-95.050-61.62-149.082-61.62s-107.942 20.54-149.022 61.62c-82.162 82.162-82.162 215.944 0 298.104l179.924 179.924c82.222 82.222 215.882 82.222 298.104 0 82.222-82.102 82.222-215.884 0-298.044zM363.942 476.070l-7.832-7.77 42.466-42.708 7.892 7.832c58.728 58.728 154.262 58.728 212.932 0s58.73-154.264 0-212.932l-182.092-182.212c-58.728-58.73-154.264-58.73-212.932 0s-58.73 154.264 0 212.932l63.73 63.788-42.586 42.586-63.728-63.788c-82.162-82.162-82.162-215.944 0-298.104 41.14-41.14 95.050-61.622 149.082-61.622s107.942 20.54 149.082 61.62l182.092 182.152c82.162 82.162 82.162 215.944 0 298.104-82.28 82.342-216.004 82.162-298.104 0.12z" />
<glyph unicode="&#xe930;" glyph-name="MO_1" data-tags="MO_공유" d="M752 304.001c-52.161 0-98.559-22.721-130.88-58.559l-197.439 113.921c15.359 25.92 24.321 56.321 24.321 88.639 0 28.799-7.039 55.68-19.199 79.68l199.361 115.2c32-31.36 75.52-50.879 123.841-50.879 97.28 0 175.999 78.719 175.999 175.999s-78.719 175.999-175.999 175.999c-97.28 0-175.999-78.719-175.999-175.999 0-25.92 5.76-50.241 15.68-72.321l-202.24-116.8c-31.36 27.84-72.321 45.119-117.44 45.119-97.28 0-175.999-78.719-175.999-175.999s78.719-175.999 175.999-175.999c41.28 0 79.040 14.401 109.12 38.080l206.72-119.36c-7.68-19.52-11.84-40.641-11.84-62.719 0-97.28 78.719-175.999 175.999-175.999s175.999 78.719 175.999 175.999c0 97.28-78.719 175.999-175.999 175.999zM752 880c61.76 0 112.001-50.241 112.001-112.001s-50.241-112.001-112.001-112.001c-61.76 0-112.001 50.241-112.001 112.001s50.241 112.001 112.001 112.001zM272 335.999c-61.76 0-112.001 50.241-112.001 112.001s50.241 112.001 112.001 112.001c61.76 0 112.001-50.241 112.001-112.001s-50.241-112.001-112.001-112.001zM752 16c-61.76 0-112.001 50.241-112.001 112.001s50.241 112.001 112.001 112.001c61.76 0 112.001-50.241 112.001-112.001s-50.241-112.001-112.001-112.001z" />
<glyph unicode="&#xe931;" glyph-name="MO_2" data-tags="MO_뒤로가기" d="M361.53 544.634l-37.954 37.954-269.176-269.176h915.2v53.835h-785.188z" />
<glyph unicode="&#xe932;" glyph-name="MO_3" data-tags="MO_장바구니" d="M809.6 696h-148.8v99.2c0 82.088-66.712 148.8-148.8 148.8s-148.8-66.712-148.8-148.8v-99.2h-148.8l-99.2-744h793.6l-99.2 744zM412.8 795.2c0 54.808 44.392 99.2 99.2 99.2s99.2-44.392 99.2-99.2v-99.2h-198.4v99.2zM257.8 646.4h105.4v-56.544c-14.88-8.68-24.8-24.304-24.8-42.656 0-27.28 22.32-49.6 49.6-49.6s49.6 22.32 49.6 49.6c0 18.352-9.92 34.224-24.8 42.656v56.544h198.4v-56.544c-14.88-8.68-24.8-24.304-24.8-42.656 0-27.28 22.32-49.6 49.6-49.6s49.6 22.32 49.6 49.6c0 18.352-9.92 34.224-24.8 42.656v56.544h105.4l86.056-644.8h-680.512l86.056 644.8z" />
<glyph unicode="&#xe933;" glyph-name="key" data-tags="key" d="M892.144 580.578l42.586 42.586-104.388 104.388 45.598 45.356-42.466 42.706-490.678-488.328c-29.154 20.24-64.452 32.226-102.582 32.226-99.63 0-180.706-81.076-180.706-180.706s81.076-180.706 180.706-180.706 180.706 81.076 180.706 180.706c0 39.816-13.372 76.378-35.238 106.254l317.080 315.512 104.688-104.69 42.586 42.586-104.63 104.568 42.226 42.044 104.508-104.508zM240.158 58.338c-66.44 0-120.472 54.030-120.472 120.472s54.032 120.472 120.472 120.472 120.472-54.030 120.472-120.472-54.032-120.472-120.472-120.472z" />
<glyph unicode="&#xe934;" glyph-name="download" data-tags="download" d="M512 136.162l-292.322 290.936 42.466 42.706 219.738-218.714v650.36h60.234v-650.36l219.678 218.654 42.466-42.706-292.262-290.876zM963.764 416.076v-389.722c0-16.626-13.494-30.118-30.118-30.118h-843.294c-16.626 0-30.118 13.494-30.118 30.118v390.024h-60.234v-390.024c0-49.816 40.538-90.352 90.352-90.352h843.294c49.816 0 90.352 40.538 90.352 90.352v389.722h-60.236z" />
<glyph unicode="&#xe935;" glyph-name="chart" data-tags="chart" d="M60.234 899.764v-903.528h903.528v903.528h-903.528zM903.528 56.472h-783.058v120.472h783.058v-120.472zM120.472 237.176v602.352h783.058v-602.352h-783.058zM855.522 347.708l-41.984-43.188-145.588 141.492-93.606-100.954-149.746 265.94-204.86-299.672-49.754 33.972 259.614 379.664 156.852-278.408 79.33 85.654 189.74-184.5z" />
<glyph unicode="&#xe936;" glyph-name="uniE936" data-tags="전화" d="M856.78 233.541l-130.048 130.048c-17.92 17.92-47.104 17.92-65.024 0l-65.024-65.024c-17.92-17.92-47.104-17.92-65.024 0l-169.216 169.216c-17.92 17.92-17.92 47.104 0 65.024l65.024 65.024c17.92 17.92 17.92 47.104 0 65.024l-130.048 130.048c-17.92 17.92-47.104 17.92-65.024 0l-38.912-38.912c-89.856-89.856-22.784-302.336 149.504-474.88s385.024-239.36 474.88-149.504l38.912 38.912c18.176 17.92 18.176 47.104 0 65.024z" />
<glyph unicode="&#xe937;" glyph-name="uniE937" data-tags="소파" d="M839.112 570.666v245.334h-654.224v-245.334h-163.555v-368h81.777v-122.666h81.777v122.666h654.224v-122.666h81.777v122.666h81.777v368h-163.555zM266.667 734.223h490.666v-245.334h-490.666v245.334zM920.89 284.445h-817.778v204.445h81.777v-81.777h654.224v81.777h81.777v-204.445z" />
<glyph unicode="&#xe938;" glyph-name="uniE938" data-tags="일반가구" d="M1005.714 880h-987.428v-82.285h82.285v-658.287h82.285v-123.428h82.285v123.428h493.714v-123.428h82.285v123.428h82.285v658.287h82.285v82.285zM841.143 221.713h-658.287v246.858h658.287v-246.858zM841.143 550.856h-658.287v246.858h658.287v-246.858zM429.715 715.429h164.571v-82.285h-164.571v82.285zM429.715 386.286h164.571v-82.285h-164.571v82.285z" />
<glyph unicode="&#xe939;" glyph-name="uniE939" data-tags="상판" d="M1006.545 654.061h-700.604v164.849h82.423v-123.636h82.423v206.061h-247.272v-247.272h-206.061v-247.272h41.213v-412.121h906.666v412.121h41.213v247.272zM99.878 571.636h824.242v-82.423h-824.242v82.423zM141.089 77.090v329.697h329.697v-329.697h-329.697zM882.909 77.090h-329.697v329.697h329.697v-329.697z" />
<glyph unicode="&#xe93a;" glyph-name="uniE93A" data-tags="가전기기" d="M18.525 874.182v-852.364h986.948v852.364h-986.948zM915.75 111.541h-807.502v672.918h807.502v-672.918zM242.832 290.985h134.584v-89.723h-134.584v89.723zM467.137 290.985h314.028v-89.723h-314.028v89.723zM332.553 425.57c74.47 0 134.584 60.115 134.584 134.584s-60.115 134.584-134.584 134.584-134.584-60.115-134.584-134.584 60.115-134.584 134.584-134.584zM332.553 605.016c24.674 0 44.862-20.187 44.862-44.862s-20.187-44.862-44.862-44.862-44.862 20.187-44.862 44.862 20.187 44.862 44.862 44.862zM691.445 425.57c74.47 0 134.584 60.115 134.584 134.584s-60.115 134.584-134.584 134.584-134.584-60.115-134.584-134.584 60.115-134.584 134.584-134.584zM691.445 605.016c24.674 0 44.862-20.187 44.862-44.862s-20.187-44.862-44.862-44.862-44.862 20.187-44.862 44.862 20.187 44.862 44.862 44.862z" />
<glyph unicode="&#xe93b;" glyph-name="uniE93B" data-tags="중문" d="M61.092 944v-992h901.818v992h-901.818zM151.273 42.182v811.636h315.636v-811.636h-315.636zM872.728 42.182h-315.636v811.636h315.636v-811.636zM331.636 538.181h90.181v-180.364h-90.181v180.364zM602.181 538.181h90.181v-180.364h-90.181v180.364z" />
<glyph unicode="&#xe93c;" glyph-name="uniE93C" data-tags="바스" d="M1003.791 550.457h-737.683v204.911h81.965v-122.948h81.965v204.911h-245.894v-286.877h-163.931v-81.965h81.965v-327.859h81.965v-81.965h81.965v81.965h491.79v-81.965h81.965v81.965h81.965v327.859h81.965v81.965zM839.86 222.598h-655.718v245.894h655.718v-245.894z" />
<glyph unicode="&#xe93d;" glyph-name="uniE93D" data-tags="인테리어" d="M15.999 943.999v-992h992v992h-992zM917.818 42.181h-811.636v811.636h811.636v-811.636zM872.726 808.727h-721.455v-721.455h721.455v721.455zM241.454 177.455v541.091h225.455v-541.091h-225.455zM782.544 177.455h-225.455v541.091h225.455v-541.091z" />
<glyph unicode="&#xe93e;" glyph-name="_" data-tags="고객센터_키즈" d="M563.479 699.376h-167.583c-23.043 0-41.896-18.853-41.896-41.896s18.853-41.896 41.896-41.896h167.583c23.043 0 41.896 18.853 41.896 41.896s-18.853 41.896-41.896 41.896zM992.91 688.901c-16.339 16.339-42.734 16.339-59.073 0l-79.183-79.183c-18.016 144.96-141.189 257.24-291.175 257.24h-167.583c-162.137 0-293.271-131.134-293.271-293.271v-49.437c-48.599-17.596-83.791-63.681-83.791-118.146 0-50.275 29.327-93.009 72.061-113.119 61.587-154.595 212.412-263.943 388.793-263.943s327.206 109.348 388.793 263.943c42.734 20.11 72.061 62.844 72.061 113.119 0 46.504-25.557 86.724-62.844 108.091l115.213 115.213c16.339 16.759 16.339 43.153 0 59.492zM186.417 573.688c0 115.632 93.846 209.478 209.478 209.478h167.583c115.632 0 209.478-93.846 209.478-209.478v-41.896h-586.54v41.896zM832.45 368.399l-29.746-14.245-12.149-30.584c-51.112-127.782-173.029-210.735-310.867-210.735s-259.753 82.954-311.285 211.155l-12.149 30.584-29.327 13.826c-11.731 5.865-24.3 18.434-24.3 37.706 0 23.043 18.853 41.896 41.896 41.896h670.333c23.043 0 41.896-18.853 41.896-41.896 0-19.272-12.569-31.841-24.3-37.706zM437.791 364.21c0-23.138-18.758-41.896-41.896-41.896s-41.896 18.758-41.896 41.896c0 23.138 18.758 41.896 41.896 41.896s41.896-18.758 41.896-41.896zM605.374 364.21c0-23.138-18.758-41.896-41.896-41.896s-41.896 18.758-41.896 41.896c0 23.138 18.758 41.896 41.896 41.896s41.896-18.758 41.896-41.896zM584.846 274.553c-20.11 11.731-45.667 5.027-57.397-14.663-2.094-3.771-14.245-21.367-47.761-21.367s-45.667 17.596-47.761 21.367c-11.731 20.11-37.287 26.814-57.397 14.663-20.11-11.731-26.394-37.287-15.082-57.397 8.798-14.663 43.153-62.424 120.24-62.424s111.442 47.761 119.822 62.424c11.731 20.11 5.027 45.667-14.663 57.397z" />
<glyph unicode="&#xe93f;" glyph-name="uniE93F" data-tags="첨부파일" d="M930.365 866.365c-52.063 51.443-120.241 77.475-188.419 77.475s-136.356-26.032-188.419-77.475l-146.273-146.273 44.006-44.006 146.273 146.273c38.428 38.428 89.871 59.501 144.413 59.501s105.986-21.073 144.413-59.501c38.428-38.428 59.501-89.871 59.501-144.413s-21.073-105.986-59.501-144.413l-146.273-146.273 44.006-44.006 146.273 146.273c103.507 103.507 103.507 273.332 0 376.838zM426.468 73.641c-38.428-38.428-89.871-59.501-144.413-59.501s-105.986 21.073-144.413 59.501c-38.428 38.428-59.501 89.871-59.501 144.413s21.073 105.986 59.501 144.413l146.273 146.273-44.006 44.006-146.273-146.273c-103.507-103.507-103.507-272.712 0-376.219 52.063-52.063 120.241-78.095 188.419-78.095s136.356 26.032 188.419 77.475l146.273 146.273-44.006 44.006-146.273-146.273zM322.666 302.498l334.393 334.393 43.826-43.826-334.393-334.393-43.826 43.826z" />
<glyph unicode="&#xe940;" glyph-name="nodata" data-tags="no data" d="M512 944c-273.916 0-496-222.084-496-496s222.084-496 496-496 496 222.084 496 496-222.084 496-496 496zM512-23.2c-259.78 0-471.2 211.42-471.2 471.2s211.42 471.2 471.2 471.2 471.2-211.42 471.2-471.2-211.42-471.2-471.2-471.2zM512 634c-13.64 0-24.8-11.16-24.8-24.8v-223.2c0-13.64 11.16-24.8 24.8-24.8s24.8 11.16 24.8 24.8v223.2c0 13.64-11.16 24.8-24.8 24.8zM536.8 286.8c0-13.696-11.104-24.8-24.8-24.8s-24.8 11.104-24.8 24.8c0 13.696 11.104 24.8 24.8 24.8s24.8-11.104 24.8-24.8z" />
<glyph unicode="&#xe941;" glyph-name="_large" data-tags="장바구니_large" d="M412.969 175.664c-54.714 0-99.032-44.316-99.032-99.032s44.316-99.032 99.032-99.032 99.032 44.316 99.032 99.032-44.316 99.032-99.032 99.032zM412.969 2.358c-40.974 0-74.274 33.3-74.274 74.274s33.3 74.274 74.274 74.274 74.274-33.3 74.274-74.274-33.3-74.274-74.274-74.274zM747.201 175.664c-54.714 0-99.032-44.316-99.032-99.032s44.316-99.032 99.032-99.032 99.032 44.316 99.032 99.032-44.316 99.032-99.032 99.032zM747.201 2.358c-40.974 0-74.274 33.3-74.274 74.274s33.3 74.274 74.274 74.274 74.274-33.3 74.274-74.274-33.3-74.274-74.274-74.274zM351.075 782.232v-24.758h625.136l-75.512-334.232h-462.972v-24.758h482.778l86.652 383.748zM171.457 918.4h-154.614v-24.758h135.178l154.86-631.326h588.866v24.758h-569.432z" />
<glyph unicode="&#xe942;" glyph-name="pcoutline" data-tags="pc outline" d="M120.472 297.412h783.058v481.882h-783.058v-481.882zM180.706 719.058h662.588v-361.412h-662.588v361.412zM933.648 899.764h-843.294c-49.814 0-90.352-38.43-90.352-85.716v-611.628c0-47.284 40.538-85.716 90.352-85.716h843.294c49.814 0 90.352 38.43 90.352 85.716v611.63c0 47.284-40.538 85.716-90.352 85.716zM963.764 202.422c0-14.096-13.552-25.48-30.118-25.48h-843.294c-16.564 0-30.118 11.384-30.118 25.48v611.63c0 14.096 13.552 25.48 30.118 25.48h843.294c16.566 0 30.118-11.384 30.118-25.48v-611.63zM301.176 56.472h421.646v-60.236h-421.646v60.236z" />
<glyph unicode="&#xe943;" glyph-name="uniE943" data-tags="반짝특가" d="M512 944c-273.902 0-496-222.098-496-496s222.098-496 496-496c273.902 0 496 222.098 496 496s-222.098 496-496 496zM512-11.26c-253.327 0-459.26 205.933-459.26 459.26s205.933 459.26 459.26 459.26 459.26-205.933 459.26-459.26-205.933-459.26-459.26-459.26zM596.687 412.545c4.593 10.838 7.164 22.964 7.164 35.455 0 44.456-31.596 81.564-73.482 90.015v222.282h-36.74v-222.282c-41.884-8.451-73.482-45.558-73.482-90.015 0-50.702 41.149-91.853 91.853-91.853 24.8 0 47.396 9.92 63.929 26.085 0 0 0 0 0 0l136.676-78.809 18.371 31.78-134.287 77.34zM512 392.889c-30.311 0-55.111 24.8-55.111 55.111s24.8 55.111 55.111 55.111c30.311 0 55.111-24.8 55.111-55.111s-24.8-55.111-55.111-55.111z" />
<glyph unicode="&#xe944;" glyph-name="uniE944" data-tags="플레이" d="M194.56 190.080v610.674l564.448-352.754-485.088-303.154v-93.646l634.88 396.8-793.6 496v-992l79.36 49.6v93.646z" />
<glyph unicode="&#xe945;" glyph-name="MO_4" data-tags="MO_필터" d="M819.692 478.77c101.846 0 184.616 82.77 184.616 184.616s-82.77 184.616-184.616 184.616c-91.384 0-167.076-66.462-181.846-153.846h-618.154v-61.538h618.154c14.77-87.384 90.462-153.846 181.846-153.846zM819.692 786.462c68 0 123.076-55.076 123.076-123.076s-55.076-123.076-123.076-123.076c-68 0-123.076 55.076-123.076 123.076s55.076 123.076 123.076 123.076zM388.924 417.23c-91.384 0-167.076-66.462-181.846-153.846h-187.384v-61.538h187.384c14.77-87.384 90.462-153.846 181.846-153.846s167.076 66.462 181.846 153.846h433.538v61.538h-433.538c-14.77 87.384-90.462 153.846-181.846 153.846zM388.924 109.538c-68 0-123.076 55.076-123.076 123.076s55.076 123.076 123.076 123.076c68 0 123.076-55.076 123.076-123.076s-55.076-123.076-123.076-123.076z" />
<glyph unicode="&#xe946;" glyph-name="_check" data-tags="알림_check" d="M883.256 829.084l-521.944-521.944-220.571 220.571-120.113-120.113 340.682-340.682 642.056 642.056z" />
<glyph unicode="&#xe947;" glyph-name="MO_arrow" data-tags="MO_arrow" d="M512 944c-273.792 0-496-222.208-496-496s222.208-496 496-496c273.792 0 496 222.208 496 496s-222.208 496-496 496zM512 1.6c-246.016 0-446.4 200.384-446.4 446.4s200.384 446.4 446.4 446.4c246.016 0 446.4-200.384 446.4-446.4s-200.384-446.4-446.4-446.4zM512 389.968l-210.304 210.304-70.432-69.936 280.736-280.736 280.736 280.736-70.432 69.936z" />
<glyph unicode="&#xe948;" glyph-name="crossclosedeletecancel" data-tags="cross close delete cancel" d="M554.586 448l400.324-400.324-42.586-42.586-400.324 400.324-400.324-400.324-42.586 42.586 400.324 400.324-400.384 400.324 42.586 42.586 400.384-400.324 400.324 400.324 42.586-42.586-400.324-400.324z" />
<glyph unicode="&#xe949;" glyph-name="clipfileattach" data-tags="clip file attach" d="M724.088 704.964v-511.88h-60.236v511.88c0 65.716-48.128 136.494-153.842 136.494-116.918 0-148.12-85.776-148.12-136.494v-489.17h0.422v-87.764c0-37.346 41.742-72.644 85.896-72.644 50.838 0 94.388 41.14 94.388 74.752v16.264h-0.182l0.482 458.812c0 52.646-14.878 52.646-28.070 52.646-22.226 0-32.95-2.108-32.95-49.574v-309.972h-60.236v309.972c0 27.166 0 109.808 93.184 109.808 40.298 0 88.304-19.576 88.304-112.942l-0.422-387.312h0.12v-87.764c0-70.656-73.728-134.986-154.624-134.986-77.824 0-146.13 62.102-146.13 132.88v4.456h-0.422v572.536c0 94.75 65.176 196.728 208.354 196.728 140.528-0.060 214.076-98.966 214.076-196.728z" />
<glyph unicode="&#xe94a;" glyph-name="chevron-up-thin" data-tags="chevron-up-thin" d="M985.088 243.442l-42.586-42.586-430.502 430.442-430.44-430.442-42.586 42.586 473.028 473.028 473.088-473.028z" />
<glyph unicode="&#xe94b;" glyph-name="chevron-right-thin" data-tags="chevron-right-thin" d="M795.528 449.688l-473.088-473.088-42.586 42.586 430.44 430.44-430.44 430.562 42.586 42.586 473.088-473.088z" />
<glyph unicode="&#xe94c;" glyph-name="chevron-left-thin" data-tags="chevron-left-thin" d="M313.644 449.748l430.442-430.502-42.586-42.586-473.028 473.088 473.088 473.028 42.586-42.586-430.502-430.442z" />
<glyph unicode="&#xe94d;" glyph-name="chevron-down-thin" data-tags="chevron-down-thin" d="M985.088 654.306l-473.148-473.088-473.028 473.088 42.586 42.586 430.38-430.442 430.562 430.502 42.648-42.646z" />
<glyph unicode="&#xe94e;" glyph-name="menu" data-tags="menu" d="M18.459 808.23v67.544h985.502v-67.544zM18.459 20.226v67.544h985.502v-67.544zM18.459 414.229v67.544h987.080v-67.544z" />
<glyph unicode="&#xe94f;" glyph-name="OFF" data-tags="알림 OFF" d="M602.1 88.051c0-0.451 0-0.451 0-0.9 0-49.555-40.545-90.1-90.1-90.1s-90.1 40.545-90.1 90.1c0 0.451 0 0.451 0 0.9h-45.050c0-0.451 0-0.451 0-0.9 0-74.784 60.366-135.15 135.15-135.15s135.15 60.366 135.15 135.15c0 0.451 0 0.451 0 0.9h-45.050zM827.351 493.5c0 174.343-141.007 315.351-315.351 315.351s-315.351-141.007-315.351-315.351v-315.351h-90.1v-45.050h810.9v45.050h-90.1v315.351zM782.299 178.149h-540.601v315.351c0 149.116 121.183 270.299 270.299 270.299s270.299-121.183 270.299-270.299v-315.351zM917.449 876.425c0-37.32-30.255-67.575-67.575-67.575s-67.575 30.255-67.575 67.575c0 37.32 30.255 67.575 67.575 67.575s67.575-30.255 67.575-67.575z" />
<glyph unicode="&#xe950;" glyph-name="MO_OFF" data-tags="MO_별점 OFF" d="M511.999 824.091l102.5-249.203 8.956-21.528 23.245-1.905 267.114-21.528-221.389-191.475 5.333-22.48 62.302-263.304-227.866 140.796-20.196 12.193-20.005-12.384-227.866-140.796 67.636 285.784-17.529 15.051-203.859 176.425 290.356 23.433 8.956 21.528 102.312 249.394zM511.999 924.307l-137.747-335.129-357.612-28.77 272.639-235.866-83.448-352.849 306.171 189.188 306.171-189.188-83.448 352.849 272.639 235.866-357.612 28.77-137.747 335.129z" />
<glyph unicode="&#xe951;" glyph-name="uniE951" data-tags="선물하기" d="M534.443 734.128l114.003 114.003-31.867 31.867-127.020-127.467-127.020 127.020-31.867-31.418 114.003-114.003h-426.389v-718.129h987.428v718.129h-471.273zM63.172 689.245h403.947v-179.532h-403.947v179.532zM63.172 60.881v403.947h403.947v-403.947h-403.947zM960.834 60.881h-448.831v403.947h448.831v-403.947zM512.003 509.713v179.532h448.831v-179.532h-448.831z" />
<glyph unicode="&#xe952;" glyph-name="uniE952" data-tags="조회수" d="M368 448c0-79.68 64.32-144 144-144s144 64.32 144 144-64.32 144-144 144-144-64.32-144-144zM608 448c0-52.8-43.2-96-96-96s-96 43.2-96 96 43.2 96 96 96 96-43.2 96-96zM512 687.999c-288 0-480-239.999-480-239.999s192-239.999 480-239.999 480 239.999 480 239.999-192 239.999-480 239.999zM512 256c-201.6 0-355.199 131.52-415.2 192 60 60.96 212.639 192 415.2 192 201.6 0 355.199-131.52 415.2-192-60-60.96-212.639-192-415.2-192z" />
<glyph unicode="&#xe953;" glyph-name="bag" data-tags="bag" d="M421.646 176.942v90.352h60.236v-30.118h60.234v30.118h60.236v-90.352h-180.706zM1024 297.412h-60.236v-361.412h-903.528v361.412h-60.234v481.882h217.812c56.5 110.23 168.96 180.706 294.188 180.706s237.75-70.536 294.19-180.706h217.81v-481.882zM287.262 779.294h449.596c-49.694 74.27-133.12 120.472-224.798 120.472s-175.104-46.26-224.798-120.472zM903.528 297.412h-783.058v-301.176h783.058v301.176zM963.764 719.058h-903.528v-361.412h903.528v361.412z" />
<glyph unicode="&#xe954;" glyph-name="uniE954" data-tags="달력" d="M715.332 854.666v81.334h-40.666v-81.334h-325.334v81.334h-40.666v-81.334h-284.666v-894.666h976v894.666h-284.666zM959.332 0.666h-894.666v569.334h894.666v-569.334zM959.332 610.666h-894.666v203.334h244v-81.334h40.666v81.334h325.334v-81.334h40.666v81.334h244v-203.334zM413.178 123.886c33.346 0 59.374 8.54 78.486 25.214 19.114 17.080 28.874 39.854 28.874 69.134v8.946c0 19.926-4.474 36.6-13.826 50.426s-22.774 23.586-40.666 29.28c15.046 6.1 26.84 15.046 35.38 27.246 8.54 11.794 13.014 26.434 13.014 43.106v7.32c0 26.84-8.946 47.986-26.434 63.034-17.894 15.046-42.294 22.774-74.014 22.774s-56.526-7.726-74.42-23.18c-18.3-15.86-26.84-37.006-26.84-64.254v-5.286h41.886v4.88c0 15.86 4.88 28.060 14.64 36.6s23.994 12.606 42.7 12.606c18.706 0 33.346-4.474 43.106-13.014s15.046-21.146 15.046-37.414v-6.914c0-16.674-5.286-29.28-15.454-38.634-10.574-8.946-25.62-13.826-45.546-13.826h-19.52v-39.040h19.926c21.96 0 38.226-4.88 49.614-14.234s16.674-23.18 16.674-41.48v-9.354c0-17.894-5.286-31.72-16.266-41.48-10.574-9.76-26.026-14.64-46.36-14.64s-35.38 4.066-45.954 12.606c-10.574 8.134-15.86 20.334-15.86 35.786v4.474h-42.7v-4.88c0-27.246 9.354-48.394 27.654-63.44s43.92-22.366 76.86-22.366zM650.672 128.766h44.326v336.314h-44.326l-71.574-45.546v-47.58l71.574 45.14z" />
<glyph unicode="&#xe955;" glyph-name="OFF1" data-tags="추천 OFF" d="M970.132 567.662c-33.993 43.432-84.507 67.982-139.744 67.982h-133.136c8.969 72.233 21.719 252.579-64.205 295.54-36.354 17.941-75.54 16.996-107.642-2.831-25.494-15.581-42.016-41.072-42.016-64.68 0-183.177-163.35-261.547-231.335-286.572v83.092h-236.052v-708.162h236.052v75.54c129.83-57.127 308.286-69.873 437.17-69.873 24.55 0 47.21 0.471 67.042 0.944 78.371 2.36 146.352 57.597 165.71 134.077l80.731 322.45c13.22 53.821 1.416 109.057-32.577 152.489zM204.843-0.758h-141.631v613.741h141.631v-613.741zM956.914 426.973l-80.256-322.45c-14.165-56.181-63.735-96.311-121.332-98.199-126.999-3.776-357.86 0-502.323 72.705v448.975c64.205 21.719 278.544 110.944 278.544 336.142 0 5.191 6.138 16.052 19.357 24.55 10.385 6.607 32.103 15.105 61.374 0.471 53.821-26.91 50.515-181.762 35.408-273.351l-4.247-27.381h187.899c40.131 0 77.425-18.412 102.448-50.044s32.577-72.233 23.134-111.418z" />
<glyph unicode="&#xe956;" glyph-name="presentation" data-tags="presentation" d="M542.118 839.528v120.472h-60.236v-120.472h-421.646v-602.352h903.528v602.352h-421.646zM903.528 297.412h-783.058v481.882h783.058v-481.882zM210.824 176.942h602.352v-60.236h-155.648l90.594-140.106-50.598-32.708-111.736 172.816h-43.672v-180.706h-60.236v180.706h-42.888l-112.58-172.876-50.476 32.828 91.196 140.048h-156.312v60.236z" />
<glyph unicode="&#xe957;" glyph-name="ON" data-tags="추천 ON" d="M16.509 614.268h193.106v-627.595h-193.106v627.595zM850.243 612.819h-163.659c0 0 41.999 259.244-49.244 304.624-64.206 32.345-117.796-15.45-117.796-47.311 0-209.521-194.071-294.968-261.175-318.624v-509.315c150.624-70.968 377.522-77.724 515.593-73.382 70.001 2.414 129.865 50.692 146.76 118.762l82.071 329.727c24.621 99.932-50.692 195.521-152.556 195.521z" />
<glyph unicode="&#xe958;" glyph-name="move-thin" data-tags="move-thin" d="M819.38 276.39l-42.526 42.648 99.028 98.846h-333.764v-333.764l98.846 99.028 42.648-42.526-171.61-171.972-171.61 171.972 42.646 42.526 98.846-99.028v333.764h-333.764l99.026-98.846-42.526-42.648-171.972 171.61 171.972 171.61 42.526-42.648-99.026-98.846h333.764v333.764l-98.846-99.028-42.646 42.526 171.61 171.972 171.61-171.972-42.648-42.526-98.846 99.028v-333.764h333.764l-99.028 98.846 42.526 42.648 171.972-171.61-171.972-171.61z" />
<glyph unicode="&#xe959;" glyph-name="arrowbothvertical" data-tags="arrow both vertical" d="M701.26 233.382l43.128-42.044-232.388-238.23-232.388 238.17 43.128 42.044 159.142-163.058v755.472l-159.142-163.116-43.128 42.104 232.388 238.17 232.388-238.17-43.128-42.044-159.142 163.058v-755.53l159.142 163.178z" />
<glyph unicode="&#xe95a;" glyph-name="arrowbothhorizontal" data-tags="arrow both horizontal" d="M1006.894 448l-238.17-232.388-42.044 43.128 163.058 159.142h-755.472l163.116-159.142-42.044-43.128-238.23 232.388 238.17 232.388 42.044-43.128-163.056-159.142h755.53l-163.116 159.142 42.044 43.128 238.17-232.388z" />
<glyph unicode="&#xe95b;" glyph-name="zoom-thin" data-tags="zoom-thin" d="M963.524 276.208l0.24-279.974-280.034 0.24 0.060 60.236 177.092-0.182-348.882 348.822-348.882-348.884 177.092 0.182 0.060-60.236-280.034-0.182 0.24 280.034 60.234-0.060-0.18-177.032 348.882 348.822-348.882 348.884 0.18-177.032-60.234-0.060-0.24 279.974 280.034-0.24-0.060-60.236-177.092 0.182 348.882-348.884 348.882 348.884-177.092-0.182-0.060 60.236 280.034 0.24-0.24-280.034-60.236 0.060 0.182 177.032-348.882-348.822 348.884-348.884-0.182 177.032 60.236 0.060z" />
<glyph unicode="&#xe95c;" glyph-name="arrow-rightup" data-tags="arrow-rightup" d="M963.764 899.946v-542.298h-60.236v439.536l-621.448-620.242-42.586 42.648 621.326 620.122h-440.68v60.236h543.624z" />
<glyph unicode="&#xe95d;" glyph-name="arrow-leftup" data-tags="arrow-leftup" d="M740.412 176.942l-621.448 620.244v-439.536h-60.234v542.298h543.624v-60.236h-440.68l621.326-620.122-42.586-42.648z" />
<glyph unicode="&#xe95e;" glyph-name="chevron-up-circle" data-tags="chevron-up-circle" d="M512 611.058l262.264-262.264-42.586-42.586-219.678 219.678-219.618-219.618-42.586 42.586 262.204 262.204zM1024 448c0-282.322-229.678-512-512-512s-512 229.678-512 512 229.676 512 512 512 512-229.678 512-512zM963.764 448c0 249.134-202.632 451.764-451.764 451.764s-451.764-202.632-451.764-451.764 202.632-451.764 451.764-451.764 451.764 202.632 451.764 451.764z" />
<glyph unicode="&#xe95f;" glyph-name="chevron-right-circle" data-tags="chevron-right-circle" d="M412.854 710.264l262.204-262.264-262.264-262.264-42.586 42.586 219.678 219.678-219.678 219.618 42.646 42.648zM1024 448c0-282.322-229.678-512-512-512s-512 229.678-512 512 229.676 512 512 512 512-229.678 512-512zM963.764 448c0 249.134-202.632 451.764-451.764 451.764s-451.764-202.632-451.764-451.764 202.632-451.764 451.764-451.764 451.764 202.632 451.764 451.764z" />
<glyph unicode="&#xe960;" glyph-name="chevron-left-circle" data-tags="chevron-left-circle" d="M653.794 667.618l-219.678-219.618 219.618-219.618-42.586-42.586-262.204 262.204 262.264 262.264 42.586-42.648zM1024 448c0-282.322-229.678-512-512-512s-512 229.678-512 512 229.676 512 512 512 512-229.678 512-512zM963.764 448c0 249.134-202.632 451.764-451.764 451.764s-451.764-202.632-451.764-451.764 202.632-451.764 451.764-451.764 451.764 202.632 451.764 451.764z" />
<glyph unicode="&#xe961;" glyph-name="chevron-down-circle" data-tags="chevron-down-circle" d="M731.618 589.794l42.586-42.586-262.204-262.264-262.264 262.204 42.586 42.586 219.678-219.618 219.618 219.678zM1024 448c0-282.322-229.678-512-512-512s-512 229.678-512 512 229.676 512 512 512 512-229.678 512-512zM963.764 448c0 249.134-202.632 451.764-451.764 451.764s-451.764-202.632-451.764-451.764 202.632-451.764 451.764-451.764 451.764 202.632 451.764 451.764z" />
<glyph unicode="&#xe962;" glyph-name="chevron-dd-up" data-tags="chevron-dd-up" d="M512 594.192l412.854-412.854-42.586-42.586-370.266 370.266-370.206-370.206-42.586 42.586 412.792 412.792zM512 800.738l370.206-370.206 42.586 42.586-412.792 412.854-412.854-412.854 42.646-42.586 370.206 370.206z" />
<glyph unicode="&#xe963;" glyph-name="chevron-dd-right" data-tags="chevron-dd-right" d="M580.908 448l-412.854-412.854-42.586 42.586 370.206 370.266-370.206 370.206 42.586 42.648 412.854-412.854zM459.836 860.852l-42.586-42.646 370.206-370.206-370.206-370.206 42.586-42.586 412.792 412.792-412.792 412.854z" />
<glyph unicode="&#xe964;" glyph-name="chevron-dd-left" data-tags="chevron-dd-left" d="M481.098 448l370.206-370.206-42.586-42.586-412.792 412.792 412.854 412.854 42.586-42.586-370.266-370.266zM559.586 818.266l-42.586 42.586-412.854-412.852 412.854-412.854 42.586 42.586-370.206 370.266 370.206 370.266z" />
<glyph unicode="&#xe965;" glyph-name="chevron-dd-down" data-tags="chevron-dd-down" d="M512 318.856l-412.854 412.854 42.586 42.586 370.266-370.206 370.206 370.206 42.586-42.586-412.792-412.852zM512 112.248l-370.206 370.266-42.646-42.586 412.854-412.854 412.854 412.854-42.586 42.586-370.266-370.266z" />
<glyph unicode="&#xe966;" glyph-name="OFF2" data-tags="좋아요 OFF" d="M737.65 874.182c-56.525 0-112.601-19.738-158.359-57.422-25.571-21.084-67.292-68.189-67.292-68.189s-41.721 47.105-67.292 67.74c-45.758 38.132-101.834 57.872-158.359 57.872-100.041 0-267.822-75.816-267.822-304.16 0-64.599 21.084-139.968 100.041-229.241 126.060-141.312 393.433-318.964 393.433-318.964s267.372 177.65 393.433 318.964c78.956 89.274 100.041 164.64 100.041 229.241 0 228.344-167.781 304.16-267.822 304.16zM871.785 370.839c-98.246-110.807-291.15-247.635-359.786-294.737-68.638 47.105-261.092 183.93-359.786 294.737-79.403 89.722-88.826 156.566-88.826 199.184 0 212.641 161.052 259.298 222.96 259.298 46.655 0 92.863-16.598 130.097-47.105 18.393-15.254 51.142-50.692 62.356-63.255l33.197-37.684 33.645 37.684c11.215 12.561 43.515 48.001 62.356 63.255 36.786 30.505 82.993 47.105 129.649 47.105 61.909 0 222.96-46.655 222.96-259.298 0-42.618-9.421-109.461-88.826-199.184z" />
<glyph unicode="&#xe967;" glyph-name="ON1" data-tags="좋아요 ON" d="M737.65 874.181c-56.525 0-112.601-19.738-158.359-57.422-25.571-21.084-67.292-68.189-67.292-68.189s-41.721 47.105-67.292 67.74c-45.758 38.132-101.834 57.872-158.359 57.872-100.041 0-267.822-75.816-267.822-304.16 0-64.599 21.084-139.968 100.041-229.241 126.060-141.312 393.433-318.964 393.433-318.964s267.372 177.65 393.433 318.964c78.956 89.274 100.041 164.64 100.041 229.241 0 228.344-167.781 304.16-267.822 304.16z" />
<glyph unicode="&#xe968;" glyph-name="uniE968" data-tags="공유" d="M739.334 282.666c-52.907 0-99.2-25.213-129.787-63.653l-190.547 133.507c19.427 26.867 31 59.933 31 95.48 0 35.96-11.573 69.027-31 95.893l190.547 133.507c30.173-38.853 76.88-64.067 129.787-64.067 91.347 0 165.333 73.987 165.333 165.333s-73.987 165.333-165.333 165.333c-91.347 0-165.333-73.987-165.333-165.333 0-23.56 4.96-45.88 14.053-66.133l-197.987-138.053c-28.52 23.973-64.893 38.853-105.4 38.853-91.347 0-165.333-73.987-165.333-165.333s73.987-165.333 165.333-165.333c40.507 0 76.88 15.293 105.813 39.267l197.573-138.467c-9.093-20.253-14.053-42.573-14.053-66.133 0-91.347 73.987-165.333 165.333-165.333s165.333 73.987 165.333 165.333c0 91.347-73.987 165.333-165.333 165.333zM739.334 902.665c68.2 0 124-55.8 124-124s-55.8-124-124-124-124 55.8-124 124c0 68.2 55.8 124 124 124zM284.667 323.999c-68.2 0-124 55.8-124 124s55.8 124 124 124 124-55.8 124-124c0-68.2-55.8-124-124-124zM739.334-6.667c-68.2 0-124 55.8-124 124s55.8 124 124 124 124-55.8 124-124c0-68.2-55.8-124-124-124z" />
<glyph unicode="&#xe969;" glyph-name="_on-11" data-tags="찜하기_on-11" d="M936.958 784.273c-90.419 88.629-236.342 88.629-326.761 0l-98.029-96.237-98.029 96.237c-90.419 88.629-236.342 88.629-326.761 0s-90.419-232.761 0-321.39l424.79-417.627 424.79 417.627c89.972 89.077 89.972 232.761 0 321.39z" />
<glyph unicode="&#xe96a;" glyph-name="_on-12" data-tags="찜하기_on-12" d="M936.97 784.506c-90.421 88.63-236.348 88.63-326.77 0l-98.031-96.238-98.031 96.238c-90.421 88.63-236.348 88.63-326.77 0s-90.421-232.767 0-321.4l424.801-418.085 31.781 31.334 393.018 386.75c89.974 88.63 89.974 232.767 0 321.4zM905.187 494.442l-393.018-386.75-393.018 386.75c-72.514 71.621-72.514 187.558 0 259.178s190.688 71.621 263.206 0l98.031-96.238-105.195-103.849 31.781-31.334 235.006 230.977c72.514 71.621 190.688 71.621 263.206 0 72.514-71.173 72.514-187.558 0-258.73z" />
<glyph unicode="&#xe96b;" glyph-name="uniE96B" data-tags="삭제" d="M364.228 892.544h296.528v-49.422h-296.528v49.422zM857.947 744.776h-840.16v-49.422h148.264v-691.898h691.898v691.898h148.264v49.422h-148.264zM808.526 52.878h-593.054v642.477h593.054v-642.477zM413.156 398.826h49.422v-247.106h-49.422v247.106zM561.42 398.826h49.422v-247.106h-49.422v247.106z" />
<glyph unicode="&#xe96c;" glyph-name="uniE96C" data-tags="최근본상품" d="M542.428 912.527c-255.953 0-464.526-208.572-464.526-464.526 0-80.363 21.832-158.403 60.852-228.082l-105.912 38.555-15.794-43.666 174.662-63.64 63.64 174.662-43.666 15.794-34.375-95.228c-34.375 61.782-52.956 130.531-52.956 201.604 0 230.405 187.668 418.073 418.073 418.073s418.073-187.668 418.073-418.073-187.668-418.073-418.073-418.073c-61.317 0-120.776 13.007-176.056 38.555l-19.51-42.272c61.317-28.336 127.28-42.736 195.566-42.736 255.953 0 464.526 208.572 464.526 464.526s-208.572 464.526-464.526 464.526zM495.975 633.812v-232.262l181.165-104.518 23.226 40.414-157.939 91.047v205.321z" />
<glyph unicode="&#xe96d;" glyph-name="upload" data-tags="upload" d="M1024-3.764v-60.236h-1024v60.236h1024zM481.822 857.118v-680.176h60.236v680.298l219.678-219.678 42.586 42.586-292.322 292.322-292.382-292.322 42.586-42.586 219.618 219.558z" />
<glyph unicode="&#xe96e;" glyph-name="underline" data-tags="underline" d="M903.528 899.764v-60.236h-60.236v-389.060c0-182.634-148.6-331.294-331.294-331.294s-331.294 148.66-331.294 331.294v389.060h-60.234v60.236h180.706v-60.236h-60.236v-389.060c0-149.444 121.616-271.058 271.058-271.058s271.058 121.616 271.058 271.060v389.060h-60.236v60.236h180.706zM120.472-3.764h783.058v60.236h-783.058v-60.236z" />
<glyph unicode="&#xe96f;" glyph-name="uniE96F" data-tags="쿠폰" d="M23.466 114.909h666.182v44.412h-621.77v577.358h621.77v44.412h-666.182zM778.473 781.092v-44.412h177.648v-577.358h-177.648v-44.412h222.061v666.182zM285.323 341.557l244.287 244.356 31.409-31.399-244.287-244.356-31.409 31.399zM378.764 559.030c0 48.854-39.971 88.825-88.825 88.825s-88.825-39.971-88.825-88.825c0-48.854 39.971-88.825 88.825-88.825s88.825 39.971 88.825 88.825zM289.939 514.619c-24.426 0-44.412 19.985-44.412 44.412s19.985 44.412 44.412 44.412 44.412-19.985 44.412-44.412-19.985-44.412-44.412-44.412zM556.412 248.146c48.854 0 88.825 39.971 88.825 88.825s-39.971 88.825-88.825 88.825-88.825-39.971-88.825-88.825c0-48.854 39.971-88.825 88.825-88.825zM556.412 381.382c24.426 0 44.412-19.985 44.412-44.412s-19.985-44.412-44.412-44.412-44.412 19.985-44.412 44.412 19.985 44.412 44.412 44.412z" />
<glyph unicode="&#xe970;" glyph-name="uniE970" data-tags="카톡채팅" d="M421.82 943.999v-270.545h-405.819v-721.455l180.364 180.364h586.181v405.819h90.181l135.272-135.272v541.091h-586.181zM737.456 177.455h-559.579l-116.785-116.785v567.695h676.364v-450.909zM962.91 591.388v-79.811l-71.695 71.695h-108.669v90.181h-315.636v225.455h495.999v-307.52z" />
<glyph unicode="&#xe971;" glyph-name="uniE971" data-tags="다운로드" d="M17 40.353h990v-58.236h-990v58.236zM541.118 215.059l320.295 320.295-41.347 41.347-278.947-279.53v616.712h-58.236v-616.712l-278.947 279.53-41.347-41.347 320.295-320.295z" />
<glyph unicode="&#xe972;" glyph-name="uniE972" data-tags="초기화" d="M512 944c-187.24 0-349.68-104.16-434-256.68v194.68h-62v-310h310v62h-205.84c70.060 146.32 218.86 248 391.84 248 239.32 0 434-194.68 434-434s-194.68-434-434-434c-218.24 0-398.66 161.82-429.040 372h-62.62c30.38-244.9 238.7-434 491.66-434 274.040 0 496 221.96 496 496s-221.96 496-496 496z" />
<glyph unicode="&#xe973;" glyph-name="uniE973" data-tags="팝업" d="M512 944c-274.040 0-496-221.96-496-496s221.96-496 496-496 496 221.96 496 496-221.96 496-496 496zM512 14c-239.32 0-434 194.68-434 434s194.68 434 434 434 434-194.68 434-434-194.68-434-434-434zM450 696h124v-124h-124v124zM450 510h124v-310h-124v310z" />
<glyph unicode="&#xe974;" glyph-name="uniE974" data-tags="툴팁" d="M512 944c-274.040 0-496-221.96-496-496s221.96-496 496-496 496 221.96 496 496-221.96 496-496 496zM514.48 14c-239.32 0-434 194.68-434 434s194.68 434 434 434 434-194.68 434-434-194.68-434-434-434zM512 423.2l-148.8 148.8-70.68-70.060 219.48-219.48 219.48 219.48-70.68 70.060z" />
<glyph unicode="&#xe975;" glyph-name="chart-up" data-tags="chart-up" d="M1024-3.764v-60.236h-1024v60.236h1024zM313.404 479.562l253.23-182.272 336.896 376.53v-137.576h60.236v243.050h-243.11v-60.236h142.518l-305.394-341.232-248.712 179.14-263.348-238.292 40.418-44.634 227.268 205.524z" />
<glyph unicode="&#xe976;" glyph-name="chart-down" data-tags="chart-down" d="M311.176 429.75l-263.288 238.29 40.358 44.634 227.268-205.582 253.23 182.272 336.896-376.472v137.638h60.236v-243.11h-243.11v60.236h142.518l-305.334 341.234-248.772-179.14zM0-3.764v-60.236h1024v60.236h-1024z" />
<glyph unicode="&#xe977;" glyph-name="directionvertical" data-tags="direction vertical" d="M641.264 168.148l42.586-42.586-171.85-171.912-171.912 171.912 42.586 42.586 99.208-99.208v227.208h60.236v-227.208l99.148 99.208zM481.882 827.062v-227.208h60.234v227.208l99.148-99.148 42.586 42.586-171.85 171.85-171.912-171.85 42.586-42.586 99.208 99.146zM0 478.118v-60.234h1024v60.236h-1024z" />
<glyph unicode="&#xe978;" glyph-name="directionhorizontal" data-tags="direction horizontal" d="M132.938 478.118h227.208v-60.234h-227.208l99.148-99.148-42.586-42.586-171.85 171.85 171.912 171.912 42.586-42.586-99.208-99.208zM834.5 619.912l-42.586-42.586 99.148-99.208h-227.208v-60.236h227.208l-99.148-99.148 42.586-42.586 171.85 171.85-171.85 171.912zM481.882-64h60.234v1024h-60.236v-1024z" />
<glyph unicode="&#xe979;" glyph-name="_on" data-tags="별점_on" d="M205.992-22.399l306.008 186.674 306.008-186.674-83.186 348.592 272.336 232.724-357.504 28.224-137.654 331.26-137.654-330.766-357.504-28.72 272.336-233.22-83.186-348.096z" />
<glyph unicode="&#xe97a;" glyph-name="brightness" data-tags="brightness" d="M512 658.824c-116.254 0-210.824-94.57-210.824-210.824s94.57-210.824 210.824-210.824 210.824 94.568 210.824 210.824-94.568 210.824-210.824 210.824zM512 297.412c-83.004 0-150.588 67.584-150.588 150.588s67.584 150.588 150.588 150.588 150.588-67.584 150.588-150.588-67.584-150.588-150.588-150.588zM542.118 719.058h-60.236v180.706h60.236v-180.706zM481.882 176.942h60.234v-180.706h-60.236v180.706zM963.764 478.118v-60.234h-180.706v60.236h180.706zM240.942 417.882h-180.706v60.236h180.706v-60.236zM724.992 618.406l-42.586 42.586 127.76 127.76 42.586-42.586-127.76-127.76zM299.008 277.594l42.586-42.586-127.76-127.76-42.586 42.586 127.76 127.76zM724.992 277.594l127.76-127.76-42.586-42.586-127.76 127.76 42.586 42.586zM299.008 618.406l-127.76 127.76 42.586 42.586 127.76-127.76-42.586-42.586z" />
<glyph unicode="&#xe97b;" glyph-name="right" data-tags="right" d="M503.206 740.382l292.322-292.382-292.382-292.382-42.586 42.586 219.678 219.678h-680.236v60.236h680.178l-219.618 219.618 42.646 42.648zM963.764 960v-1024h60.236v1024h-60.236z" />
<glyph unicode="&#xe97c;" glyph-name="left-end" data-tags="left-end" d="M1024 417.822h-680.178l219.618-219.618-42.586-42.586-292.382 292.382 292.382 292.382 42.586-42.586-219.738-219.738h680.298v-60.236zM0-64h60.234v1024h-60.234v-1024z" />
<glyph unicode="&#xe97d;" glyph-name="_half" data-tags="별점_half" d="M519.579 918.401l-137.654-330.766-357.504-28.72 272.336-233.22-83.186-348.096 306.008 186.674z" />
<glyph unicode="&#xe97e;" glyph-name="note" data-tags="note" d="M60.234 960v-1024h903.528v1024h-903.528zM903.528-3.764h-783.058v903.528h120.472v-65.778c-34.998-12.468-60.236-45.598-60.236-84.812 0-49.814 40.538-90.352 90.354-90.352s90.354 40.538 90.354 90.352c0 39.214-25.238 72.344-60.236 84.812v65.778h180.706v-65.778c-34.998-12.468-60.236-45.598-60.236-84.812 0-49.814 40.538-90.352 90.352-90.352s90.352 40.538 90.352 90.352c0 39.214-25.24 72.344-60.236 84.812v65.778h180.706v-65.778c-34.996-12.468-60.236-45.598-60.236-84.812 0-49.814 40.538-90.352 90.352-90.352s90.352 40.538 90.352 90.352c0 39.214-25.24 72.344-60.236 84.812v65.778h120.472v-903.528zM301.176 749.176c0-16.564-13.552-30.118-30.118-30.118s-30.118 13.552-30.118 30.118 13.552 30.118 30.118 30.118 30.118-13.552 30.118-30.118zM542.118 749.176c0-16.564-13.552-30.118-30.118-30.118s-30.118 13.552-30.118 30.118 13.552 30.118 30.118 30.118 30.118-13.552 30.118-30.118zM783.058 749.176c0-16.564-13.552-30.118-30.118-30.118s-30.118 13.552-30.118 30.118 13.552 30.118 30.118 30.118 30.118-13.552 30.118-30.118z" />
<glyph unicode="&#xe97f;" glyph-name="server" data-tags="server" d="M1024 749.176c0 136.916-263.832 210.824-512 210.824s-512-73.908-512-210.824c0-8.974 1.446-19.154 4.818-30.118h-4.818v-572.236c0-136.914 263.832-210.824 512-210.824s512 73.908 512 210.824v572.236h-4.818c3.374 10.962 4.818 21.144 4.818 30.118zM512 899.764c258.59 0 451.764-79.51 451.764-150.588 0-23.974-23.37-50.296-65.836-74.028-85.474-47.948-229.736-76.558-385.928-76.558s-300.454 28.612-385.928 76.558c-42.466 23.734-65.838 50.056-65.838 74.028 0 71.078 193.176 150.588 451.764 150.588zM512-3.764c-258.59 0-451.764 79.51-451.764 150.588v98.364c10.54-8.132 22.106-16.324 36.382-24.274 94.088-52.646 249.374-84.088 415.382-84.088 20.78 0 41.382 0.482 61.62 1.446 142.216 6.686 271.36 36.562 353.702 82.644v0c0 0.060 0.060 0.060 0.060 0.060 14.216 8.010 25.9 16.144 36.382 24.274v-98.424c0-71.078-193.174-150.588-451.764-150.588zM897.928 273.498c-85.534-47.886-229.736-76.5-385.928-76.5-19.516 0-38.912 0.482-57.946 1.326-133.36 6.144-253.17 33.25-327.98 75.114v0c-42.406 23.852-65.838 50.176-65.838 74.15v98.424c10.54-8.132 22.168-16.324 36.442-24.274 94.028-52.646 249.314-84.088 415.322-84.088s321.296 31.442 415.322 84.088c14.276 7.952 25.9 16.144 36.442 24.274v-98.424c0-23.974-23.432-50.296-65.836-74.090zM897.866 474.322c-85.474-47.888-229.678-76.5-385.868-76.5s-300.392 28.612-385.868 76.5c-42.466 23.734-65.898 50.116-65.898 74.090v98.424c10.54-8.192 22.106-16.324 36.382-24.336 94.088-52.706 249.314-84.148 415.382-84.148s321.294 31.442 415.382 84.148c14.276 8.012 25.842 16.144 36.382 24.336v-98.424c0-23.974-23.432-50.356-65.898-74.088z" />
<glyph unicode="&#xe980;" glyph-name="uniE980" data-tags="잠금" d="M487.6 326h48.8v-146.4h-48.8v146.4zM780.4 545.6v122c0 148.352-120.048 268.4-268.4 268.4s-268.4-120.048-268.4-268.4v-122h-122v-585.6h780.8v585.6h-122zM292.4 667.6c0 121.024 98.576 219.6 219.6 219.6s219.6-98.576 219.6-219.6v-122h-439.2v122zM853.6 8.8h-683.2v488h683.2v-488z" />
<glyph unicode="&#xe981;" glyph-name="uniE981" data-tags="홈" d="M337.817 360.909h348.363v-43.546h-348.363v43.546zM511.999 796.363l-478.999-261.272v-435.454h43.546v411.504l435.454 233.403 435.454-233.403v-411.504h43.546v435.454z" />
<glyph unicode="&#xe982;" glyph-name="uniE982" data-tags="마이페이지" horiz-adv-x="1040" d="M649.591 428.48c84.043 46.088 141.52 133.928 141.52 236.408 0 149.654-121.458 271.112-271.112 271.112s-271.112-121.458-271.112-271.112c0-102.48 57.477-190.32 141.52-236.408-176.222-55.306-304.186-220.142-304.186-414.258v-54.222h54.222v54.222c0 209.298 170.258 379.557 379.557 379.557s379.557-170.258 379.557-379.557v-54.222h54.222v54.222c0 194.117-127.963 358.952-304.186 414.258zM303.111 664.888c0 119.832 97.058 216.888 216.888 216.888s216.888-97.058 216.888-216.888c0-119.832-97.058-216.888-216.888-216.888s-216.888 97.058-216.888 216.888z" />
<glyph unicode="&#xe983;" glyph-name="print-thin" data-tags="print-thin" d="M1024 598.588h-181.188v109.508l-271.24 251.904h-391.348v-361.412h-180.224v-481.882h180.706v-186.728h662.588v186.73h180.706v481.882zM601.87 849.65l140.65-130.59h-140.65v130.59zM240.46 899.764h301.176v-240.94h240.942v-60.236h-542.118v301.176zM783.058-9.788h-542.118v301.176h542.118v-301.176zM963.764 176.942h-120.472v174.682h-662.588v-174.682h-120.472v361.412h903.528v-361.412zM662.95 176.942h-361.774v60.236h361.774v-60.236zM542.118 56.472h-240.942v60.236h240.942v-60.236zM180.706 417.882h-60.234v60.236h60.234v-60.236zM301.176 417.882h-60.236v60.236h60.236v-60.236z" />
<glyph unicode="&#xe984;" glyph-name="uniE984" data-tags="회원가입" d="M457.644 496.532l113.083 113.083-34.459 34.459-171.807-171.807 171.807-171.807 34.459 34.459-113.083 113.083h539.692v48.533zM657.599 59.732h-582.4v776.536h582.4v-97.066h48.533v145.599h-679.469v-873.601h679.469v145.599h-48.533z" />
<glyph unicode="&#xe985;" glyph-name="uniE985" data-tags="장바구니" d="M781.175 560.155l-134.586 314.026h-44.863l130.545-314.026h-440.538l130.545 314.026h-44.863l-134.586-314.026h-224.304l134.586-538.336h717.777l134.586 538.336h-224.304zM188.112 66.682l-112.155 448.613h178.101l112.155-448.613h-178.101zM412.417 66.682l-112.155 448.613h423.491l-112.155-448.613h-199.184zM835.908 66.682h-178.101l112.155 448.613h178.101l-112.155-448.613z" />
<glyph unicode="&#xe986;" glyph-name="uniE986" data-tags="매장찾기" d="M511.998 489.867c57.776 0 104.667 46.891 104.667 104.667s-46.891 104.667-104.667 104.667-104.667-46.891-104.667-104.667c0-57.776 46.891-104.667 104.667-104.667zM511.998 657.334c34.749 0 62.8-28.051 62.8-62.8s-28.051-62.8-62.8-62.8-62.8 28.051-62.8 62.8 28.051 62.8 62.8 62.8zM805.065 322.401h-136.904c60.707 66.149 115.971 156.163 115.971 265.853 0 153.651-121.832 278.413-272.133 278.413s-272.133-124.763-272.133-278.413c0-109.691 55.264-199.704 115.971-265.853h-136.904l-209.333-293.067h1004.8l-209.333 293.067zM511.998 824.801c126.856 0 230.267-105.923 230.267-236.547 0-178.771-170.816-304.371-230.267-342.469-59.451 38.099-230.267 164.117-230.267 342.469 0 130.624 103.411 236.547 230.267 236.547zM240.283 280.534h157.419c59.869-54.008 113.877-83.733 113.877-83.733s54.008 29.725 113.877 83.733h157.419l149.464-209.333h-841.52l149.464 209.333z" />
<glyph unicode="&#xe987;" glyph-name="uniE987" data-tags="고객센터" d="M271.999 592h96v-96h-96v96zM463.999 592h96v-96h-96v96zM655.999 592h96v-96h-96v96zM992 544c0 211.2-172.8 384-384 384h-192c-211.2 0-384-172.8-384-384s172.8-384 384-384h144v-192l324.96 310.56h-0.48c66.24 69.12 107.52 162.72 107.52 265.441zM846.079 307.84l-238.080-227.52v127.68h-192c-185.28 0-336.001 150.72-336.001 336.001s150.72 336.001 336.001 336.001h192c185.28 0 336.001-150.72 336.001-336.001 0-86.4-33.6-168.96-94.080-232.32l-3.84-3.84z" />
<glyph unicode="&#xe988;" glyph-name="setcontrolpanel" data-tags="set control panel" d="M0 960v-1024h1024v1024h-1024zM963.764-3.764h-903.528v903.528h903.528v-903.528zM240.942 343.672v-166.73h60.234v166.73c44.454 13.13 77.162 53.85 77.162 102.46s-32.708 89.328-77.162 102.46v170.466h-60.236v-170.466c-44.454-13.132-77.162-53.85-77.162-102.46s32.708-89.39 77.162-102.46zM271.060 493.176c25.962 0 47.044-21.142 47.044-47.044s-21.082-47.044-47.044-47.044-47.044 21.082-47.044 47.044 21.082 47.044 47.044 47.044zM481.882 471.672v-294.73h60.234v294.73c44.454 13.13 77.162 53.85 77.162 102.46s-32.708 89.328-77.162 102.46v42.466h-60.236v-42.466c-44.454-13.13-77.162-53.85-77.162-102.46s32.708-89.39 77.162-102.46zM512 621.176c25.962 0 47.044-21.142 47.044-47.044s-21.082-47.104-47.044-47.104-47.044 21.144-47.044 47.104 21.082 47.044 47.044 47.044zM752.942 151.822c59.15 0 107.278 48.128 107.278 107.278 0 48.67-32.708 89.328-77.162 102.46v357.496h-60.236v-357.496c-44.454-13.13-77.16-53.85-77.16-102.46 0-59.15 48.128-107.278 107.278-107.278zM752.942 306.206c25.962 0 47.044-21.144 47.044-47.044s-21.144-47.044-47.044-47.044-47.044 21.144-47.044 47.044 21.082 47.044 47.044 47.044z" />
<glyph unicode="&#xe989;" glyph-name="search1" data-tags="메인 검색 search" d="M1008 7.953l-220.224 220.224c63.087 75.794 101.184 173.010 101.184 279.343 0 241.256-195.223 436.48-436.48 436.48s-436.48-195.223-436.48-436.48c0-240.855 195.223-436.48 436.48-436.48 106.345 0 203.561 38.097 279.343 101.184l220.224-220.224 55.953 55.953zM452.48 150.399c-196.818 0-357.12 160.302-357.12 357.12s160.302 357.12 357.12 357.12c196.818 0 357.12-160.302 357.12-357.12s-160.302-357.12-357.12-357.12z" />
<glyph unicode="&#xe98a;" glyph-name="cross" data-tags="커뮤니티용 두꺼운 cross" d="M880 748.83l-67.17 67.17-300.83-301.308-300.83 301.308-67.17-67.17 301.308-300.83-301.308-300.83 67.17-67.17 300.83 301.308 300.83-301.308 67.17 67.17-301.308 300.83z" />
<glyph unicode="&#xe98b;" glyph-name="uniE98B" data-tags="이동" d="M512 825.861l263.781-223.2 58.619 68.539-322.4 272.8-322.4-272.8 58.619-68.539zM512 70.139l-263.781 223.2-58.619-68.539 322.4-272.8 322.4 272.8-58.619 68.539z" />
<glyph unicode="&#xe98c;" glyph-name="control-play" data-tags="control-play" d="M891.83 447.302l-759.658-479.302 0.74 960z" />
<glyph unicode="&#xe98d;" glyph-name="control-pause" data-tags="control-pause" d="M188.108 928h182.985v-960h-182.985v960zM652.906 928h182.985v-960h-182.985v960z" />
<glyph unicode="&#xe98e;" glyph-name="MO_5" data-tags="MO_앞으로가기" d="M662.47 544.634l37.954 37.954 269.176-269.176h-915.2v53.835h785.188z" />
<glyph unicode="&#xe98f;" glyph-name="arrow-right-wide" data-tags="arrow-right-wide" d="M986.854 448l-204.535-204.535-19.664 19.664 170.937 170.937h-896.446v27.812h896.474l-170.965 170.993 19.664 19.664z" />
<glyph unicode="&#xe990;" glyph-name="logout" data-tags="logout" d="M971.283 437.772l-139.8-139.751-34.939 34.939 115.044 115.044h-549.617v49.417h549.617l-115.044 115.044 34.939 34.989 174.739-174.739-34.939-34.939zM660.25 843.337h-593.052v-790.673h593.052v98.833h49.417v-148.25h-691.888v889.506h691.888v-148.25h-49.417v98.833z" />
<glyph unicode="&#xe991;" glyph-name="config" data-tags="config" d="M512 696c-136.634 0-248-111.366-248-248s111.366-248 248-248c136.634 0 248 111.366 248 248s-111.366 248-248 248zM512 640.889c106.847 0 192.889-86.043 192.889-192.889s-86.043-192.889-192.889-192.889c-106.847 0-192.889 86.043-192.889 192.889s86.043 192.889 192.889 192.889zM554.933 888.889l10.251-30.642 9.589-28.823 29.484-7.275c37.751-9.259 73.739-24.194 107.026-44.308l25.956-15.762 27.226 13.556 28.932 14.493 60.731-60.731-14.493-28.932-13.556-27.226 15.707-25.956c20.172-33.287 35.106-69.276 44.364-106.971l7.275-29.54 59.465-19.84v-85.863l-59.465-19.84-7.275-29.54c-9.259-37.696-24.194-73.685-44.364-106.971l-15.707-25.956 13.556-27.226 14.493-28.932-60.731-60.731-28.932 14.493-27.226 13.556-25.956-15.707c-33.287-20.172-69.276-35.106-107.026-44.364l-29.484-7.275-9.589-28.823-10.251-30.642h-85.863l-10.251 30.642-9.589 28.823-29.54 7.275c-37.696 9.259-73.685 24.194-106.971 44.364l-25.956 15.707-27.226-13.556-28.932-14.493-60.731 60.731 14.493 28.932 13.556 27.226-15.707 25.956c-20.172 33.287-35.106 69.276-44.364 106.971l-7.275 29.54-59.465 19.84v85.863l59.465 19.84 7.275 29.54c9.259 37.696 24.194 73.685 44.308 106.971l15.762 25.956-13.556 27.226-14.493 28.932 60.731 60.731 28.932-14.493 27.226-13.556 25.956 15.762c33.287 20.116 69.276 35.051 106.971 44.308l29.54 7.275 9.589 28.823 10.251 30.642h85.863zM594.667 944h-165.333l-22.761-68.339c-43.758-10.748-84.871-27.995-122.402-50.702l-64.425 32.24-116.947-116.947 32.24-64.425c-22.706-37.531-39.957-78.644-50.702-122.402l-68.339-22.761v-165.333l68.339-22.761c10.748-43.758 27.995-84.871 50.702-122.402l-32.24-64.425 116.947-116.947 64.425 32.24c37.531-22.706 78.644-39.957 122.402-50.702l22.761-68.339h165.333l22.761 68.339c43.758 10.748 84.871 27.995 122.402 50.702l64.425-32.24 116.947 116.947-32.24 64.425c22.706 37.531 39.957 78.644 50.702 122.402l68.339 22.761v165.333l-68.339 22.761c-10.748 43.758-27.995 84.871-50.702 122.402l32.24 64.425-116.947 116.947-64.425-32.24c-37.531 22.706-78.644 39.957-122.402 50.702l-22.761 68.339z" />
<glyph unicode="&#xe992;" glyph-name="uniE992" data-tags="현관" d="M181.333 944v-992h661.333v992h-661.333zM815.111-20.444h-606.222v936.889h606.222v-936.889zM484.444 806.222h-165.333v-330.667h165.333v330.667zM456.889 503.111h-110.222v275.556h110.222v-275.556zM704.889 806.222h-165.333v-330.667h165.333v330.667zM677.333 503.111h-110.222v275.556h110.222v-275.556zM594.667 365.333h110.222v-27.556h-110.222v27.556z" />
<glyph unicode="&#xe993;" glyph-name="uniE993" data-tags="집전체" d="M1008 944h-992v-992h372v155h124v31h-62v186h-31v-186h-62v-155h-310v527h186v31h-186v372h558v-372h-248v-31h62v-62h31v62h248v-62h31v62h62v31h-155v372h341v-372h-62v-31h62v-372h-248v186h-31v-186h-62v-31h372v837z" />
<glyph unicode="&#xe994;" glyph-name="repetition" data-tags="repetition" d="M60.234 417.882c0-132.88 103.064-240.942 229.676-240.942v-60.236c-159.864 0-289.912 135.108-289.912 301.176s130.048 301.176 289.912 301.176h254.734l-99.146 99.148 42.586 42.586 171.912-171.85-171.85-171.912-42.646 42.646 99.208 99.148h-254.794c-126.616 0-229.676-108.062-229.676-240.942zM734.088 719.058v-60.234c126.616 0 229.678-108.062 229.678-240.942s-103.062-240.942-229.678-240.942h-254.794l99.148 99.148-42.586 42.586-171.85-171.85 171.912-171.912 42.586 42.586-99.208 99.208h254.736c159.926 0 289.974 135.108 289.974 301.176s-130.048 301.176-289.912 301.176z" />
<glyph unicode="&#xe995;" glyph-name="uniE995" data-tags="외부" d="M512 830.222l-491.428-764.444h982.858l-491.428 764.444zM696.014 493.32v0l-102.108 63.886-81.905-81.905-81.905 81.905-102.108-63.886 184.014 286.394 184.014-286.394zM293.314 439.536v0l132.958 82.997 85.728-85.728 86 86 132.958-82.997 222.508-346.73h-882.933l222.781 346.458z" />
<glyph unicode="&#xe996;" glyph-name="list-bar-thin" data-tags="list-bar-thin" d="M1024 719.058v-60.234h-722.824v60.234h722.824zM180.706 688.942c0-49.816-40.538-90.354-90.352-90.354s-90.352 40.538-90.352 90.354 40.538 90.352 90.352 90.352 90.352-40.538 90.352-90.352zM120.472 688.942c0 16.564-13.492 30.118-30.118 30.118s-30.118-13.552-30.118-30.118 13.492-30.118 30.118-30.118 30.118 13.552 30.118 30.118zM301.176 417.882h722.824v60.236h-722.824v-60.236zM180.706 448c0-49.816-40.538-90.352-90.352-90.352s-90.352 40.538-90.352 90.354 40.538 90.354 90.352 90.354 90.352-40.538 90.352-90.354zM120.472 448c0 16.564-13.492 30.118-30.118 30.118s-30.118-13.552-30.118-30.118 13.492-30.118 30.118-30.118 30.118 13.552 30.118 30.118zM301.176 176.942h722.824v60.236h-722.824v-60.236zM180.706 207.058c0-49.816-40.538-90.352-90.352-90.352s-90.352 40.538-90.352 90.352 40.538 90.352 90.352 90.352 90.352-40.538 90.352-90.352zM120.472 207.058c0 16.566-13.492 30.118-30.118 30.118s-30.118-13.552-30.118-30.118 13.492-30.118 30.118-30.118 30.118 13.552 30.118 30.118z" />
<glyph unicode="&#xe997;" glyph-name="uniE997" data-tags="발코니" d="M1004 472.6v24.6h-196.8v344.4h-590.4v-344.4h-196.8v-24.6h49.2v-393.6h-49.2v-24.6h984v24.6h-49.2v393.6h49.2zM241.4 817h541.2v-319.8h-49.2v270.6h-196.8v-270.6h-49.2v270.6h-196.8v-270.6h-49.2v319.8zM708.8 497.2h-147.6v246h147.6v-246zM462.8 497.2h-147.6v246h147.6v-246zM93.8 79v393.6h98.4v-393.6h-98.4zM216.8 79v393.6h98.4v-393.6h-98.4zM339.8 79v393.6h98.4v-393.6h-98.4zM462.8 79v393.6h98.4v-393.6h-98.4zM585.8 79v393.6h98.4v-393.6h-98.4zM708.8 79v393.6h98.4v-393.6h-98.4zM930.2 79h-98.4v393.6h98.4v-393.6z" />
<glyph unicode="&#xe998;" glyph-name="uniE998" data-tags="욕실" d="M951.111 448h-768.445v329.333c0 45.283 37.050 82.333 82.333 82.333s82.333-37.050 82.333-82.333h-54.889c-30.189 0-54.889-24.7-54.889-54.889s24.7-54.889 54.889-54.889h137.222c30.189 0 54.889 24.7 54.889 54.889s-24.7 54.889-54.889 54.889h-54.889c0 60.652-49.126 109.778-109.778 109.778s-109.778-49.126-109.778-109.778v-329.333h-82.333c-30.189 0-54.889-24.7-54.889-54.889s24.7-54.889 54.889-54.889h32.933c13.173-55.987 53.791-183.603 159.178-247 0-30.189-24.7-54.889-54.889-54.889-21.681 0-41.441 12.899-50.223 32.933l-25.249-10.978c13.173-29.914 42.813-49.4 75.472-49.4 45.283 0 82.333 37.050 82.333 82.333h439.111c0-45.283 37.050-82.333 82.333-82.333 32.659 0 62.299 19.486 75.472 49.4l-25.249 10.978c-8.782-20.034-28.542-32.933-50.223-32.933-30.189 0-54.889 24.7-54.889 54.889 105.387 63.397 146.004 191.013 159.178 247h32.933c30.189 0 54.889 24.7 54.889 54.889s-24.7 54.889-54.889 54.889zM457.111 722.445c0-15.094-12.35-27.444-27.444-27.444h-137.222c-15.094 0-27.444 12.35-27.444 27.444s12.35 27.444 27.444 27.444h137.222c15.094 0 27.444-12.35 27.444-27.444zM751.041 118.667h-478.082c-87.822 56.81-125.147 165.764-138.594 219.556h755.546c-13.722-53.791-50.772-163.020-138.869-219.556zM951.111 365.667h-878.222c-15.094 0-27.444 12.35-27.444 27.444s12.35 27.444 27.444 27.444h878.222c15.094 0 27.444-12.35 27.444-27.444s-12.35-27.444-27.444-27.444z" />
<glyph unicode="&#xe999;" glyph-name="uniE999" data-tags="출석체크" d="M977.563 777.512c32.38-32.108 32.38-84.079 0-116.187l-543.11-542.838c-32.108-32.38-84.351-32.38-116.459 0l-271.556 271.284c-32.38 32.108-32.38 84.351 0 116.459 32.108 32.108 84.079 32.108 116.187 0l213.598-213.325 485.154 484.609c32.108 32.38 84.079 32.38 116.187 0z" />
<glyph unicode="&#xe99a;" glyph-name="ic_category" data-tags="ic_category" d="M83.694 170.858h856.616v-50.387h-856.616v50.387zM83.694 473.198h856.616v-50.387h-856.616v50.387zM83.694 775.529h856.616v-50.387h-856.616v50.387z" />
<glyph unicode="&#xe99b;" glyph-name="icon_serch" data-tags="icon_serch" d="M494.354 895.121c-236.945-0.111-430.131-189.422-430.242-422.92-0.084-233.402 192.945-422.67 429.883-422.67 106.256 0.049 203.703 38.169 278.896 101.254l149.915-149.915 37.085 37.085-148.927 148.927c70.243 75.266 113.222 175.558 113.274 285.662 0.084 233.427-192.954 422.561-429.883 422.561zM494.354 842.7v-0.002c209.139 0 377.534-165.567 377.457-370.136-0.095-204.69-168.694-370.502-377.819-370.599-209.129 0-377.534 165.694-377.457 370.247 0.095 204.655 168.688 370.402 377.819 370.497z" />
<glyph unicode="&#xe99c;" glyph-name="ic_my" data-tags="ic_my" d="M512.028 453.143c-245.364 0-447.277-201.894-447.277-447.227h51.874c0 216.874 178.499 395.354 395.403 395.354 216.872 0 395.354-178.472 395.354-395.354h51.874c0 245.336-201.891 447.227-447.227 447.227zM510.204 890.085c-131.908 0-239.365-107.512-239.365-239.416s107.462-239.365 239.365-239.365c131.904 0 239.416 107.462 239.416 239.365s-107.509 239.416-239.416 239.416zM510.204 838.212c103.865 0 187.542-83.672 187.542-187.542s-83.672-187.492-187.542-187.492c-103.869 0-187.492 83.622-187.492 187.492s83.627 187.542 187.492 187.542z" />
<glyph unicode="&#xe99d;" glyph-name="ic_history" data-tags="ic_history" d="M591.428 428.778l150.891-70.349-22.372-48.002-181.472 84.62v238.291h52.953v-204.559zM564.953-2.106c-202.468 0-373.428 133.787-429.93 317.721h55.946c54.701-153.989 201.461-264.767 373.985-264.767 218.99 0 397.152 178.162 397.152 397.152s-178.162 397.152-397.152 397.152-397.152-178.162-397.152-397.152v-52.953h-49.564l-0.027 0.186-109.27 109.27 37.438 37.438 69.687-69.687c12.682 237.232 208.478 425.852 448.888 425.852 248.591 0 450.105-201.514 450.105-450.105s-201.514-450.105-450.105-450.105z" />
<glyph unicode="&#xe99e;" glyph-name="uniE99E" data-tags="삭제, 휴지통" d="M194.711 944h634.578v-52.882h-634.578zM882.17 807.286h-834.785v-52.882h94.445v-802.404h740.343v802.404h94.445v52.882h-94.445zM829.287 4.882h-634.578v749.522h634.578zM369.855 633.997h52.882v-540.473h-52.882zM601.26 633.997h52.882v-540.473h-52.882z" />
<glyph unicode="&#xe99f;" horiz-adv-x="1150" d="M1135.202 642.531c0 0.003 0 0.007 0 0.011 0 167.231-135.568 302.799-302.799 302.799-108.125 0-203.014-56.673-256.582-141.935l-0.739-1.26c-53.873 88.706-149.961 147.060-259.678 147.060-167.231 0-302.799-135.568-302.799-302.799 0-85.749 35.643-163.173 92.922-218.264l0.099-0.094 470.923-470.923 469.456 470.923c55.096 54.757 89.197 130.583 89.197 214.375 0 0.038 0 0.076 0 0.114v-0.006z" />
<glyph unicode="&#xe9a0;" horiz-adv-x="1150" d="M575.083-64l-481.192 481.192c-58.797 57.665-95.243 137.936-95.243 226.72 0 175.333 142.136 317.469 317.469 317.469 106.304 0 200.406-52.249 258.024-132.467l0.648-0.949c58.267 81.159 152.363 133.401 258.662 133.401 175.333 0 317.469-142.136 317.469-317.469 0-83.452-32.199-159.383-84.851-216.048l0.182 0.198-10.269-10.563zM317.469 930.659c-0.022 0-0.048 0-0.074 0-159.129 0-288.128-128.999-288.128-288.128 0-79.948 32.561-152.29 85.145-204.489l460.67-460.377 460.36 460.36c52.887 52.262 85.642 124.796 85.642 204.981 0 159.129-128.999 288.128-288.128 288.128-103.157 0-193.652-54.21-244.551-135.697l-0.706-1.213-9.096-14.377-4.108 3.521-3.521-2.641-8.802 13.497c-51.183 82.395-141.189 136.437-243.818 136.437-0.311 0-0.623 0-0.934-0.001h0.048z" />
<glyph unicode="&#xe9a1;" glyph-name="back" data-tags="back" horiz-adv-x="1414" d="M1352.591 511.847h-1112.654l344.044 344.044c11.96 11.167 19.415 27.027 19.415 44.629 0 33.69-27.311 61.001-61.001 61.001-17.602 0-33.462-7.455-44.596-19.38l-0.033-0.035-434.326-435.952c-14.001-5.98-24.927-16.906-30.764-30.531l-0.143-0.376-30.907-30.094 488.006-488.006c11.2-10.767 26.33-17.517 43.035-17.892l0.073-0.001c16.839 0.015 32.078 6.851 43.107 17.893l0.001 0.001c11.223 10.944 18.184 26.213 18.184 43.107s-6.961 32.164-18.171 43.095l-0.013 0.012-348.925 349.738h1124.855c33.69 0 61.001 27.311 61.001 61.001s-27.311 61.001-61.001 61.001v0z" />
<glyph unicode="&#xe9ad;" glyph-name="media-stop" data-tags="media-stop" d="M180.706 779.294v-662.588h662.588v662.588h-662.588zM783.058 176.942h-542.118v542.118h542.118v-542.118z" />
<glyph unicode="&#xe9b3;" glyph-name="cloud" data-tags="cloud" d="M768 688.942c-34.816 0-69.030-7.41-101.858-22.106-53.548 52.584-124.988 82.342-199.318 82.342-118.424 0-221.908-71.68-264.856-180.826-108.604 4.456-201.968-85.594-201.968-195.644 0-107.942 87.822-195.764 195.764-195.764h572.234c141.13 0 256 114.87 256 256s-114.87 256-256 256zM768 237.176h-572.236c-74.752 0-135.528 60.778-135.528 135.528s60.778 135.528 135.528 135.528c7.528 0 14.698-1.144 21.866-2.288l26.202-4.336 7.59 25.418c28.792 96.858 115.352 161.912 215.4 161.912 64.632 0 126.616-28.732 169.924-78.728l15.962-18.432 21.322 11.746c30.298 16.684 61.862 25.178 93.966 25.178 107.942 0 195.764-87.822 195.764-195.764s-87.822-195.764-195.764-195.764z" />
<glyph unicode="&#xe9b4;" glyph-name="cloud-up" data-tags="cloud-up" d="M1024 553.412c0-141.132-114.808-256-256-256h-166.068v60.236h166.068c107.942 0 195.764 87.822 195.764 195.764s-87.822 195.764-195.764 195.764c-32.044 0-63.668-8.494-93.966-25.118l-21.322-11.746-15.962 18.432c-43.308 49.936-105.29 78.668-169.924 78.668-100.050 0-186.668-65.054-215.402-161.912l-7.59-25.418-26.202 4.336c-7.168 1.144-14.336 2.288-21.866 2.288-74.692 0-135.528-60.776-135.528-135.528s60.838-135.528 135.528-135.528h222.81v-60.236h-222.81c-107.942 0-195.764 87.822-195.764 195.764 0 109.99 92.1 200.884 201.968 195.644 42.948 109.146 146.432 180.826 264.856 180.826 74.33 0 145.77-29.756 199.318-82.342 32.888 14.696 67.042 22.106 101.858 22.106 141.192 0 256-114.87 256-256zM641.264 426.678l42.586 42.586-171.85 171.912-171.912-171.85 42.586-42.586 99.208 99.146v-469.414h60.236v469.414l99.148-99.208z" />
<glyph unicode="&#xe9b5;" glyph-name="cloud-down" data-tags="cloud-down" d="M1024 553.412c0-141.132-114.808-256-256-256h-166.068v60.236h166.068c107.942 0 195.764 87.822 195.764 195.764s-87.822 195.764-195.764 195.764c-32.044 0-63.668-8.494-93.966-25.118l-21.322-11.746-15.962 18.432c-43.308 49.936-105.29 78.668-169.924 78.668-100.050 0-186.668-65.054-215.402-161.912l-7.59-25.418-26.202 4.336c-7.168 1.144-14.336 2.288-21.866 2.288-74.692 0-135.528-60.776-135.528-135.528s60.838-135.528 135.528-135.528h222.81v-60.236h-222.81c-107.942 0-195.764 87.822-195.764 195.764 0 109.99 91.016 200.884 201.968 195.644 42.948 109.146 146.432 180.826 264.856 180.826 74.33 0 145.77-29.756 199.318-82.342 32.888 14.696 67.042 22.106 101.858 22.106 141.192 0 256-114.87 256-256zM542.118 132.97v465.62h-60.236v-465.62l-99.146 99.148-42.586-42.586 171.85-171.85 171.912 171.912-42.586 42.586-99.208-99.208z" />
<glyph unicode="&#xe9b6;" glyph-name="clipboard-o" data-tags="clipboard-o" d="M963.764 839.528v-903.528h-903.528v903.528h135.168v-60.236h-74.934v-783.058h783.058v783.058h-76.98v60.236h137.216zM783.058 658.824h-542.118v240.94h185.826c12.468 35.058 45.96 60.236 85.234 60.236s72.764-25.178 85.234-60.236h185.826v-240.94zM722.824 839.528h-180.706v30.118c0 16.626-13.494 30.118-30.118 30.118s-30.118-13.494-30.118-30.118v-30.118h-180.706v-120.472h421.646v120.472z" />
<glyph unicode="&#xe9b9;" glyph-name="book" data-tags="book" d="M999.424 890.61c-3.192 0.602-79.572 14.698-179.562 14.698-126.794 0-230.582-22.046-308.706-65.536-91.438 46.080-196.608 69.392-312.984 69.392-101.256 0-172.634-18.192-175.586-18.974l-22.588-5.904 0.060-837.632 37.588 9.698c0.662 0.12 67.464 17.048 160.526 17.048 87.16 0 166.912-14.456 238.532-42.346v-49.876h150.588v51.562c77.162 29.394 165.466 36.804 232.508 36.804 94.088 0 167.816-13.552 168.538-13.674l35.658-6.626v836.728l-24.576 4.638zM60.234 122.308v714.27c27.166 5.060 76.92 12.348 137.938 12.348 106.074 0 201.126-21.684 283.708-62.886v-709.332c-84.51 37.164-179.32 56.922-283.708 56.922-58.368 0-106.796-6.084-137.938-11.324zM963.764 120.44c-32.286 4.216-83.908 9.276-143.962 9.276-111.314 0-203.656-17.95-277.686-51.5v709.15c85.654 46.984 197.030 57.706 277.684 57.706 61.62 0 114.568-5.844 143.962-9.88v-714.752z" />
<glyph unicode="&#xe9c6;" glyph-name="caution" data-tags="caution" d="M509.228 870.13l-496.46-873.894h998.76l-502.302 873.894zM509.53 748.694l397.854-692.224h-791.13l393.276 692.224zM542.118 301.146h-60.236v237.206h60.236v-237.206zM572.236 175.074c0-33.25-26.924-60.236-60.236-60.236s-60.236 26.986-60.236 60.236 26.926 60.236 60.236 60.236 60.236-26.986 60.236-60.236z" />
<glyph unicode="&#xe9cc;" glyph-name="logo-naver" data-tags="logo-naver" horiz-adv-x="1115" d="M382.575 960h-382.575v-1024h381.262v516.653l353.903-516.653h382.464v1024h-381.195v-516.653z" />
<glyph unicode="&#xe9d4;" glyph-name="move-both" data-tags="move-both" d="M322.5 607.384l-159.444-159.384 159.384-159.384-42.586-42.586-201.968 201.97 202.028 202.028 42.586-42.646zM744.148 650.028l-42.586-42.586 159.384-159.442-159.384-159.384 42.586-42.586 201.968 201.97-201.97 202.028zM481.882-64h60.234v1024h-60.236v-1024z" />
<glyph unicode="&#xe9d6;" glyph-name="brackets-s" data-tags="brackets-s" d="M1.566 899.764h180.706v-60.236h-120.472v-783.058h120.472v-60.236h-180.706v903.528zM844.86 899.764v-60.236h120.472v-783.058h-120.472v-60.236h180.706v903.528h-180.706zM536.696 480.106c-67.162 26.082-96.798 48.428-96.798 93.966 0 33.25 25.298 72.946 91.738 72.946 44.032 0 76.558-14.396 92.462-23.13l17.348 51.32c-21.624 12.288-57.826 23.852-107.64 23.852-94.63 0-157.456-56.38-157.456-132.216 0-68.668 49.092-109.81 128.602-138 65.716-25.24 91.738-51.26 91.738-96.738 0-49.092-37.586-83.126-101.858-83.126-43.368 0-84.51 14.456-112.7 31.804l-15.902-52.766c26.022-17.288 77.282-31.082 124.204-31.082 114.87 0 170.526 64.994 170.526 140.168 0.060 71.56-41.924 111.254-124.264 143z" />
<glyph unicode="&#xe9d7;" glyph-name="move-right" data-tags="move-right" d="M915.998 448l-202.028-202.028-42.586 42.586 159.442 159.442-159.384 159.384 42.586 42.586 201.97-201.968zM421.646-64h60.236v1024h-60.236v-1024z" />
<glyph unicode="&#xe9d8;" glyph-name="move-left" data-tags="move-left" d="M352.618 607.384l-159.444-159.384 159.384-159.384-42.586-42.586-201.968 201.97 202.028 202.028 42.586-42.646zM542.118 960v-1024h60.236v1024h-60.236z" />
<glyph unicode="&#xe9da;" glyph-name="receipt" data-tags="receipt" d="M120.472 960v-1018.096l122.156 149.444 90.534-113.242 90.414 112.942 90.292-112.942 90.352 112.942 90.352-112.942 90.294 112.942 118.664-148.178v1017.134h-783.058zM843.294 114.538l-58.428 72.944-90.294-112.942-90.352 112.942-90.352-112.942-90.294 112.942-90.414-112.942-90.052 112.64-62.404-76.378v788.962h662.588v-785.226zM662.408 719.058h-361.412v60.236h361.412v-60.236zM541.938 478.118h-240.942v60.236h240.942v-60.236zM721.498 598.588h-421.646v60.236h421.646v-60.236zM301.176 357.648h421.646v-60.236h-421.646v60.236z" />
<glyph unicode="&#xe9ed;" glyph-name="screen-zoom" data-tags="screen-zoom" d="M0 899.764v-843.294h1024v843.294h-1024zM963.764 116.706h-903.528v722.824h903.528v-722.824zM279.854 336.324l-141.734 141.794 141.794 141.794 42.586-42.586-99.208-99.208 99.148-99.148-42.586-42.648zM701.5 378.97l99.208 99.146-99.148 99.146 42.586 42.586 141.734-141.734-141.794-141.794-42.586 42.648z" />
<glyph unicode="&#xe9ee;" glyph-name="screen-original" data-tags="screen-original" d="M120.472 116.706h783.058v662.588h-783.058v-662.588zM180.706 719.058h662.588v-542.118h-662.588v542.118zM963.764 687.074h60.236v-478.148h-60.236v478.148zM0 687.074h60.234v-478.148h-60.234v478.148z" />
<glyph unicode="&#xea0f;" glyph-name="info-circle-o" data-tags="info-circle-o" d="M512 960c-282.322 0-512-229.678-512-512s229.676-512 512-512 512 229.678 512 512-229.678 512-512 512zM512-3.764c-249.134 0-451.764 202.632-451.764 451.764s202.632 451.764 451.764 451.764 451.764-202.632 451.764-451.764-202.632-451.764-451.764-451.764zM542.118 214.95h58.97v-60.236h-178.176v60.236h58.97v266.24h-56.984v60.236h117.218v-326.476zM432.79 659.666c0 32.828 26.564 59.392 59.392 59.392s59.332-26.564 59.332-59.392c0-32.708-26.504-59.272-59.332-59.272s-59.392 26.564-59.392 59.272z" />
<glyph unicode="&#xea10;" glyph-name="question-circle" data-tags="question-circle" d="M512 960c-282.322 0-512-229.678-512-512s229.676-512 512-512 512 229.678 512 512-229.678 512-512 512zM512-3.764c-249.134 0-451.764 202.632-451.764 451.764s202.632 451.764 451.764 451.764 451.764-202.632 451.764-451.764-202.632-451.764-451.764-451.764zM581.752 223.986c0-34.214-27.828-62.102-62.102-62.102-34.394 0-62.224 27.89-62.224 62.102 0 34.334 27.83 62.164 62.224 62.164 34.274 0 62.102-27.768 62.102-62.164zM642.23 706.108c26.986-34.032 40.6-79.992 33.13-111.736-14.638-61.862-50.718-94.39-82.582-123.062-32.708-29.456-56.26-50.598-56.26-99.208h-60.236c0 75.354 40.418 111.798 76.138 143.962 27.768 24.998 53.972 48.61 64.212 92.1 2.048 8.614-2.35 36.14-21.684 60.536-18.492 23.432-43.85 35.298-75.174 35.298-107.158 0-112.58-86.98-112.822-96.918l-60.236 1.626c1.446 53.79 39.454 155.528 173.056 155.528 49.272 0 92.702-20.66 122.458-58.126z" />
<glyph unicode="&#xea16;" glyph-name="imgs" data-tags="imgs" d="M783.058 357.648v602.352h-783.058v-783.058h783.058v180.706zM60.234 899.764h662.588v-481.882h-45.478l-154.442 199.922-69.812-73.126-135.408 233.774-215.402-360.568h-42.044v481.882zM601.27 417.882h-428.814l144.444 241.784 124.326-214.678 76.8 80.534 83.246-107.64zM60.234 237.176v120.472h662.588v-120.472h-662.588zM1024 779.294v-783.058h-783.058v119.506h60.236v-59.272h662.588v662.588h-120.472v60.236h180.706z" />
<glyph unicode="&#xea19;" glyph-name="credit-card" data-tags="credit-card" d="M933.648 839.528h-843.294c-49.814 0-90.352-40.538-90.352-90.354v-602.352c0-49.816 40.538-90.352 90.352-90.352h843.294c49.814 0 90.352 40.538 90.352 90.352v602.352c0 49.814-40.538 90.352-90.352 90.352zM963.764 146.824c0-16.566-13.494-30.118-30.118-30.118h-843.294c-16.626 0-30.118 13.552-30.118 30.118v331.294h903.528v-331.294zM60.234 658.824v90.352c0 16.564 13.492 30.118 30.118 30.118h843.294c16.626 0 30.118-13.554 30.118-30.118v-90.352h-903.528z" />
<glyph unicode="&#xea1c;" glyph-name="media-record" data-tags="media-record" d="M512 809.412c-199.318 0-361.412-162.094-361.412-361.412s162.094-361.412 361.412-361.412 361.412 162.092 361.412 361.412-162.092 361.412-361.412 361.412zM512 146.824c-166.068 0-301.176 135.108-301.176 301.176s135.108 301.176 301.176 301.176 301.176-135.108 301.176-301.176-135.108-301.176-301.176-301.176z" />
</font>
</defs>
</svg>
