<?xml version="1.0" encoding="utf-8"?><svg xmlns="http://www.w3.org/2000/svg" xmlns:xlink="http://www.w3.org/1999/xlink"><symbol viewBox="0 0 24 24" id="i-adrs" xmlns="http://www.w3.org/2000/svg"><path d="M3 3h18v18H3V3Zm1.8 1.8v14.4h3.6v-6.3h7.2v6.3h3.6V4.8H4.8Zm9 14.4v-4.5h-3.6v4.5h3.6ZM8.4 6.6v2.7H6.6V6.6h1.8Zm4.5 0v2.7h-1.8V6.6h1.8Zm4.5 0v2.7h-1.8V6.6h1.8Z"/></symbol><symbol viewBox="0 0 24 24" id="i-ai" xmlns="http://www.w3.org/2000/svg"><path d="M9.107 5.448c.598-1.75 3.016-1.803 3.725-.159l.06.16.807 2.36a4 4 0 0 0 2.276 2.411l.217.081 2.36.806c1.75.598 1.803 3.016.16 3.725l-.16.06-2.36.807a4 4 0 0 0-2.412 2.276l-.08.216-.807 2.361c-.598 1.75-3.016 1.803-3.724.16l-.062-.16-.806-2.36a4 4 0 0 0-2.276-2.412l-.216-.081-2.36-.806c-1.75-.598-1.804-3.016-.16-3.724l.16-.062 2.36-.806A4 4 0 0 0 8.22 8.025l.081-.216.806-2.361ZM19 2a1 1 0 0 1 .898.56l.048.117.35 1.026 1.027.35a1 1 0 0 1 .118 1.845l-.118.048-1.026.35-.35 1.027a1 1 0 0 1-1.845.117l-.048-.117-.35-1.026-1.027-.35a1 1 0 0 1-.118-1.845l.118-.048 1.026-.35.35-1.027A1 1 0 0 1 19 2Z"/></symbol><symbol viewBox="0 0 24 24" id="i-arrR" xmlns="http://www.w3.org/2000/svg"><path fill-rule="evenodd" clip-rule="evenodd" d="m7 19.318 7.412-7.282-7.387-7.242L8.84 3 18 12.012 8.866 21 7 19.318Z"/></symbol><symbol fill="none" viewBox="0 0 24 24" id="i-arrRU" xmlns="http://www.w3.org/2000/svg"><path d="M21 3H6.6v2.03l10.922.008L3 19.56 4.44 21 18.962 6.478 18.97 17.4H21V3Z" fill="#202020"/></symbol><symbol viewBox="0 0 28 24" id="i-camera" xmlns="http://www.w3.org/2000/svg"><path fill-rule="evenodd" clip-rule="evenodd" d="M17.301 1.8H10.7l-2.8 4.5H1.68v15.9h24.64V6.3h-6.219l-2.8-4.5Zm.524-1.8c.115 0 .229.03.33.089a.72.72 0 0 1 .252.245L21 4.5h5.6c.371 0 .727.158.99.44.262.28.41.662.41 1.06v16.5c0 .398-.148.78-.41 1.06-.263.282-.619.44-.99.44H1.4c-.371 0-.727-.158-.99-.44A1.556 1.556 0 0 1 0 22.5V6c0-.398.147-.78.41-1.06.263-.282.619-.44.99-.44H7L9.593.335a.72.72 0 0 1 .252-.246.663.663 0 0 1 .33-.089h7.65ZM14 17.7c1.04 0 2.037-.442 2.772-1.23a4.357 4.357 0 0 0 1.148-2.97 4.357 4.357 0 0 0-1.148-2.97C16.037 9.743 15.04 9.3 14 9.3c-1.04 0-2.037.442-2.772 1.23a4.357 4.357 0 0 0-1.148 2.97c0 1.114.413 2.182 1.148 2.97.735.788 1.732 1.23 2.772 1.23Zm0 1.8c-1.485 0-2.91-.632-3.96-1.757C8.99 16.617 8.4 15.09 8.4 13.5c0-1.591.59-3.117 1.64-4.243C11.09 8.132 12.515 7.5 14 7.5c1.485 0 2.91.632 3.96 1.757 1.05 1.126 1.64 2.652 1.64 4.243 0 1.591-.59 3.117-1.64 4.243C16.91 18.868 15.485 19.5 14 19.5Z"/></symbol><symbol viewBox="0 0 24 24" id="i-cart" xmlns="http://www.w3.org/2000/svg"><path fill-rule="evenodd" clip-rule="evenodd" d="M16.931 7.714 15.011 2l-1.577.549 1.736 5.165H9.023l1.551-5.193-1.594-.493-1.699 5.686H2L3.818 22h16.364L22 7.714h-5.069ZM3.901 9.448 5.28 20.267H18.72l1.377-10.82H3.902Z"/></symbol><symbol viewBox="0 0 24 24" id="i-caution" xmlns="http://www.w3.org/2000/svg"><path d="m12.987 1.568 10.86 18.73a1.132 1.132 0 0 1-.417 1.55c-.173.1-.37.152-.57.152H1.14a1.144 1.144 0 0 1-.987-.568 1.131 1.131 0 0 1 0-1.135l10.86-18.73A1.138 1.138 0 0 1 12 1a1.144 1.144 0 0 1 .987.568ZM10.86 16.324v2.27h2.28v-2.27h-2.28Zm0-7.946v5.676h2.28V8.378h-2.28Z"/></symbol><symbol fill="none" viewBox="0 0 24 24" id="i-ccenter" xmlns="http://www.w3.org/2000/svg"><path d="M21 15.944c0 1.18-.421 2.324-1.192 3.244A5.44 5.44 0 0 1 16.758 21l-.574-1.651a3.691 3.691 0 0 0 1.464-.568c.439-.29.804-.67 1.07-1.113H16.5a1.84 1.84 0 0 1-1.273-.506 1.69 1.69 0 0 1-.527-1.22v-3.451c0-.458.19-.897.527-1.22a1.84 1.84 0 0 1 1.273-.506h2.644a6.82 6.82 0 0 0-2.382-4.313A7.383 7.383 0 0 0 12 4.727a7.383 7.383 0 0 0-4.762 1.725 6.82 6.82 0 0 0-2.382 4.313H7.5c.99 0 1.8.795 1.8 1.726v3.451c0 .458-.19.897-.527 1.22a1.84 1.84 0 0 1-1.273.506H4.8a1.84 1.84 0 0 1-1.273-.506A1.69 1.69 0 0 1 3 15.942v-4.314C3 6.863 7.03 3 12 3s9 3.863 9 8.628v4.316Zm-1.8-.002v-3.451h-2.7v3.451h2.7ZM4.8 12.491v3.451h2.7v-3.451H4.8Z" fill="#202020"/></symbol><symbol viewBox="0 0 24 24" id="i-control" xmlns="http://www.w3.org/2000/svg"><path d="M9.424 5.759h13.547c.273 0 .535-.152.728-.422.193-.27.301-.636.301-1.018s-.108-.748-.301-1.018-.455-.422-.728-.422H9.424c-.212-.842-.607-1.57-1.128-2.086C7.775.277 7.152 0 6.514 0c-.638 0-1.26.277-1.782.793-.52.515-.915 1.244-1.128 2.086H1.03c-.273 0-.535.152-.728.422C.108 3.571 0 3.937 0 4.32s.108.748.301 1.018.455.422.728.422h2.575c.213.842.607 1.571 1.128 2.087.522.516 1.144.792 1.782.792.638 0 1.261-.276 1.782-.792.521-.516.916-1.245 1.128-2.087ZM1.03 21.117c-.273 0-.535-.152-.728-.422A1.772 1.772 0 0 1 0 19.677c0-.382.108-.748.301-1.018s.455-.422.728-.422h13.546c.214-.842.608-1.571 1.129-2.087.521-.515 1.143-.792 1.782-.792.638 0 1.26.277 1.782.792.52.516.915 1.245 1.128 2.087h2.575c.273 0 .535.152.728.422.193.27.301.636.301 1.018s-.108.748-.301 1.018-.455.422-.728.422h-2.575c-.212.843-.606 1.573-1.128 2.09-.52.516-1.144.793-1.782.793-.639 0-1.262-.277-1.783-.794-.521-.516-.915-1.246-1.127-2.09H1.028Z"/></symbol><symbol viewBox="0 0 24 24" id="i-cs" xmlns="http://www.w3.org/2000/svg"><path d="M21.5 15.944c0 1.18-.421 2.324-1.192 3.244A5.44 5.44 0 0 1 17.258 21l-.574-1.651a3.691 3.691 0 0 0 1.464-.568c.439-.29.804-.67 1.07-1.113H17a1.84 1.84 0 0 1-1.273-.506 1.69 1.69 0 0 1-.527-1.22v-3.451c0-.458.19-.897.527-1.22A1.84 1.84 0 0 1 17 10.765h2.644a6.82 6.82 0 0 0-2.382-4.313A7.383 7.383 0 0 0 12.5 4.727a7.383 7.383 0 0 0-4.762 1.725 6.82 6.82 0 0 0-2.382 4.313H8c.99 0 1.8.795 1.8 1.726v3.451c0 .458-.19.897-.527 1.22A1.84 1.84 0 0 1 8 17.668H5.3a1.84 1.84 0 0 1-1.273-.506 1.69 1.69 0 0 1-.527-1.22v-4.314C3.5 6.863 7.53 3 12.5 3s9 3.863 9 8.628v4.316Zm-1.8-.002v-3.451H17v3.451h2.7ZM5.3 12.491v3.451H8v-3.451H5.3Z"/></symbol><symbol viewBox="0 0 24 24" id="i-download" xmlns="http://www.w3.org/2000/svg"><path d="M6 21h13v-2H6m13-9h-3.714V4H9.714v6H6l6.5 7 6.5-7Z"/></symbol><symbol viewBox="0 0 24 24" id="i-info" xmlns="http://www.w3.org/2000/svg"><path d="M10.8 6h2.4v2.4h-2.4V6Zm0 4.8h2.4V18h-2.4v-7.2ZM12 0C5.376 0 0 5.376 0 12s5.376 12 12 12 12-5.376 12-12S18.624 0 12 0Zm0 21.6c-5.292 0-9.6-4.308-9.6-9.6S6.708 2.4 12 2.4s9.6 4.308 9.6 9.6-4.308 9.6-9.6 9.6Z"/></symbol><symbol fill="none" viewBox="0 0 24 24" id="i-join" xmlns="http://www.w3.org/2000/svg"><circle cx="12" cy="7" r="3.162" stroke="#202020" stroke-width="1.677"/><path fill-rule="evenodd" clip-rule="evenodd" d="M11.803 14H3v7h2v-5h6.083c.12-.718.368-1.393.72-2Z" fill="#202020"/><path d="M17.727 13v3.273H21v1.454h-3.273V21h-1.454v-3.273H13v-1.454h3.273V13h1.454Z" fill="#202020"/></symbol><symbol viewBox="0 0 24 24" id="i-login" xmlns="http://www.w3.org/2000/svg"><path fill-rule="evenodd" clip-rule="evenodd" d="M11 12.602V3h2v9.602l2.546-2.523 1.408 1.421L12 16.408 7.046 11.5l1.408-1.42L11 12.601Z"/><path fill-rule="evenodd" clip-rule="evenodd" d="M19 19v-4h2v6H3v-6h2v4h14Z"/></symbol><symbol fill="none" viewBox="0 0 24 24" id="i-logout" xmlns="http://www.w3.org/2000/svg"><path d="M16 12H5M9 8l-4.5 4L9 17M14.947 4H20v16h-5.053" stroke="#202020" stroke-width="2"/></symbol><symbol fill="none" viewBox="0 0 24 24" id="i-mypage" xmlns="http://www.w3.org/2000/svg"><circle cx="12" cy="7" r="3.162" stroke="#202020" stroke-width="1.677"/><path d="M4 21v-5.965h16V21" stroke="#202020" stroke-width="2"/></symbol><symbol viewBox="0 0 24 24" id="i-mystore" xmlns="http://www.w3.org/2000/svg"><path d="M5.75 4c-.387 0-.756.132-1.098.397-.342.264-.54.604-.63 1.02l-.928 4.165c-.225 1.03-.045 1.898.522 2.663.1.104.112.198.202.283v8.467c.74 0 1.428.005 1.879.005h7.024c-.316-.576-.54-1.02-.649-1.7H5.455v-5.95h.44c.846 0 1.522-.293 2.026-.803.567.586 1.252.897 2.098.897.757 0 1.477-.349 1.981-.878.613.595 1.306.878 2.072.878.783 0 1.45-.311 2.017-.897.513.539 1.188.897 2.044.897.855 0 1.459-.33 1.972-.887l.117-.133.135-.141c.594-.775.774-1.672.55-2.701l-.928-4.165a1.912 1.912 0 0 0-.657-1.02A1.645 1.645 0 0 0 18.25 4m0 1.7.927 4.326c.081.406 0 .774-.252 1.105a1.01 1.01 0 0 1-.846.425.909.909 0 0 1-.72-.322 1.277 1.277 0 0 1-.334-.774L16.5 5.7m-10.898 0H7.5l-.525 4.76c-.108.746-.459 1.19-1.053 1.19-.37 0-.793-.189-.992-.482-.252-.33-.188-.736-.107-1.142M9.136 5.7h2.046v4.628c0 .33-.146.622-.41.897-.251.263-.475.425-.817.425-.307 0-.752-.208-.96-.482-.206-.274-.147-.557-.147-.878v-.151m3.97-4.439h1.839l.495 4.439c.072.397-.027.803-.288 1.086-.235.283-.45.425-.819.425-.279 0-.593-.18-.818-.425-.213-.234-.414-.574-.409-.897M16.503 21l-2.476-2.833 1.044-1.096 1.432 1.502 3.233-3.39 1.044 1.33L16.503 21Z"/></symbol><symbol viewBox="0 0 24 24" id="i-phone" xmlns="http://www.w3.org/2000/svg"><path d="M6.387 8.22c-.258-1.708.939-3.242 2.768-3.804.324-.1.674-.072.979.08.304.15.54.412.66.732l.586 1.575a1.366 1.366 0 0 1-.35 1.477L9.282 9.89a.681.681 0 0 0-.205.638l.016.07.042.177a9.9 9.9 0 0 0 .984 2.45 9.855 9.855 0 0 0 1.749 2.21l.054.049a.673.673 0 0 0 .65.14l2.258-.716a1.342 1.342 0 0 1 1.447.433l1.069 1.305a1.337 1.337 0 0 1-.12 1.821c-1.4 1.313-3.324 1.582-4.663.5a17.262 17.262 0 0 1-4.081-4.792A16.945 16.945 0 0 1 6.387 8.22Zm4.105 2.397 1.447-1.336a2.731 2.731 0 0 0 .703-2.955l-.586-1.575a2.693 2.693 0 0 0-1.326-1.473 2.668 2.668 0 0 0-1.97-.16c-2.27.699-4.094 2.748-3.708 5.308.27 1.787.892 4.06 2.265 6.433a18.615 18.615 0 0 0 4.402 5.167c2.008 1.623 4.689 1.069 6.43-.564a2.7 2.7 0 0 0 .242-3.677l-1.07-1.306a2.684 2.684 0 0 0-2.894-.864l-1.874.594a8.96 8.96 0 0 1-1.263-1.66 8.536 8.536 0 0 1-.796-1.93"/></symbol><symbol viewBox="0 0 24 24" id="i-redo" xmlns="http://www.w3.org/2000/svg"><path d="M16.82 4 15.4 5.44 17.94 8H8.23a6 6 0 1 0 0 12h2v-2h-2a4 4 0 1 1 0-8h9.71l-2.54 2.51 1.41 1.41L21.77 9l-4.95-5Z"/></symbol><symbol viewBox="0 0 24 24" id="i-reset" xmlns="http://www.w3.org/2000/svg"><path d="M24 12c0 6.628-5.372 12-12 12S0 18.628 0 12 5.372 0 12 0v2.4a9.6 9.6 0 1 0 6.162 2.238L15.6 7.2V0h7.2l-2.936 2.936A11.975 11.975 0 0 1 24 12Z"/></symbol><symbol viewBox="0 0 24 24" id="i-save" xmlns="http://www.w3.org/2000/svg"><path d="M18.443 0c.729 0 1.337.239 1.826.717.488.478.732 1.073.731 1.785V24l-9.5-3.99L2 24V2.502c0-.713.245-1.308.733-1.785C3.223.24 3.83 0 4.56 0h13.884ZM5.29 1c-.651.001-1.196.21-1.633.627C3.22 2.044 3 2.565 3 3.189V22l8.5-3.491L20 22V3.19c0-.624-.217-1.145-.654-1.563-.438-.418-.982-.627-1.634-.627H5.289Z"/></symbol><symbol fill="none" viewBox="0 0 24 24" id="i-search" xmlns="http://www.w3.org/2000/svg"><circle cx="11.5" cy="11.5" r="7.5" stroke="#202020" stroke-width="1.355"/><path stroke="#202020" stroke-width="1.355" d="m16.479 16.521 4 4"/></symbol><symbol viewBox="0 0 24 24" id="i-setting" xmlns="http://www.w3.org/2000/svg"><path d="M12 8a4 4 0 1 0 4 4 4 4 0 0 0-4-4Zm0 6a2 2 0 1 1 2-2 2 2 0 0 1-2 2Z"/><path d="m21.294 13.9-.444-.256a9.1 9.1 0 0 0 0-3.29l.444-.256a3 3 0 1 0-3-5.2l-.445.257A8.977 8.977 0 0 0 15 3.513V3a3 3 0 0 0-6 0v.513a8.977 8.977 0 0 0-2.848 1.646L5.705 4.9a3 3 0 0 0-3 5.2l.444.256a9.1 9.1 0 0 0 0 3.29l-.444.256a3 3 0 1 0 3 5.2l.445-.257A8.977 8.977 0 0 0 9 20.487V21a3 3 0 0 0 6 0v-.513a8.977 8.977 0 0 0 2.848-1.646l.447.258a3 3 0 0 0 3-5.2Zm-2.548-3.776a7.048 7.048 0 0 1 0 3.75 1 1 0 0 0 .464 1.133l1.084.626a1 1 0 0 1-1 1.733l-1.086-.628a1 1 0 0 0-1.215.165 6.984 6.984 0 0 1-3.243 1.875 1 1 0 0 0-.751.969V21a1 1 0 0 1-2 0v-1.252a1 1 0 0 0-.751-.969A6.984 6.984 0 0 1 7.006 16.9a1 1 0 0 0-1.215-.165l-1.084.627a1 1 0 1 1-1-1.732l1.084-.626a1 1 0 0 0 .464-1.133 7.048 7.048 0 0 1 0-3.75 1 1 0 0 0-.465-1.129l-1.084-.626a1 1 0 0 1 1-1.733l1.086.628A1 1 0 0 0 7.006 7.1a6.984 6.984 0 0 1 3.243-1.875A1 1 0 0 0 11 4.252V3a1 1 0 0 1 2 0v1.252a1 1 0 0 0 .751.969A6.984 6.984 0 0 1 16.994 7.1a1 1 0 0 0 1.215.165l1.084-.627a1 1 0 1 1 1 1.732l-1.084.626a1 1 0 0 0-.463 1.129Z"/></symbol><symbol viewBox="0 0 24 24" id="i-undo" xmlns="http://www.w3.org/2000/svg"><path d="M7.18 4 8.6 5.44 6.06 8h9.71a6 6 0 0 1 0 12h-2v-2h2a4 4 0 1 0 0-8H6.06l2.54 2.51-1.41 1.41L2.23 9l4.95-5Z"/></symbol></svg>